SplineFontDB: 1.0
FontName: Hittite
FullName: Hittite
FamilyName: Hittite
Weight: Medium
Copyright: Ancient Hittite Font created with PfaEdit 1.0 (http://pfaedit.sf.net)\nCopyright (C) Gina Cook\n\nThis program is free software; you can redistribute it and/or modify it under the terms of the GNU General Public License as published by the Free Software Foundation; either version 2 of the License, or (at your option) any later version.\n\nThis program is distributed in the hope that it will be useful, but WITHOUT ANY WARRANTY; without even the implied warranty of MERCHANTABILITY or FITNESS FOR A PARTICULAR PURPOSE. See the GNU General Public License for more details.\n\nYou should have received a copy of the GNU General Public License along with this program; if not, write to the Free Software Foundation, Inc., 59 Temple Place, Suite 330, Boston, MA 02111-1307 USA\n
Comments: 2003-4-17: Created.
Version: 001.000
ItalicAngle: 0
UnderlinePosition: -100
UnderlineWidth: 50
Ascent: 800
Descent: 200
XUID: [1021 939 539542032 15645299]
FSType: 0
Encoding: iso8859_1
DisplaySize: -24
AntiAlias: 1
WinInfo: 32 16 4
BeginChars: 256 82
StartChar: exclam
Encoding: 33 33
Width: 1161
Flags: HW
HStem: 193.037 27.9922<240 796 460.531 798.697> 376.487 23.0518<415 799> 553.536 23.0518<416 799> 760.736 20G<728.872 913.29> 763 20G<928.108 1101>
VStem: 804.614 29.6387<28 221 222 583> 1005.5 23.0518<26 221 222 409>
Fore
1005.5 27.0391 m 29
 1005.5 411.808 l 29
 933.049 595.14 l 29
 997.265 595.14 l 29
 928.108 783 l 29
 1101 783 l 29
 1030.2 595.14 l 29
 1094.41 595.14 l 29
 1041 411.771 l 29
 1041 27 l 29
 1005.5 27.0391 l 29
806.261 27.0391 m 29
 804.614 583.824 l 29
 728.872 780.736 l 29
 913.29 780.736 l 29
 846 577.785 l 29
 846 21 l 29
 806.261 27.0391 l 29
799.799 576.588 m 29
 415.028 576.588 l 29
 231.696 649.037 l 29
 231.696 584.821 l 29
 43.8379 653.979 l 29
 43.8379 481.086 l 29
 231.696 551.891 l 29
 231.696 487.672 l 29
 417.292 553.536 l 29
 802.062 553.536 l 29
 799.799 576.588 l 29
799.395 399.539 m 29
 414.625 399.539 l 29
 231.293 471.988 l 29
 231.293 407.772 l 29
 43.4336 476.929 l 29
 43.4336 304.037 l 29
 231.293 374.841 l 29
 231.293 310.623 l 29
 416.888 376.487 l 29
 801.658 376.487 l 29
 799.395 399.539 l 29
798.697 221.029 m 29
 241.912 222.676 l 29
 45 298.418 l 29
 45 114 l 29
 241.912 193.037 l 29
 798.697 193.037 l 29
 798.697 221.029 l 29
EndSplineSet
MinimumDistance: x8,-1 
EndChar
StartChar: quotedbl
Encoding: 34 34
Width: 932
Flags: HW
Fore
706.962 394.077 m 21
 886.641 295.062 l 29
 883.697 334.068 l 29
 829.764 379.146 l 29
 826.869 451.151 l 29
 877.962 514.077 l 29
 860 541.103 l 29
 703.962 421.077 l 29
 223.796 421.673 l 29
 27 501 l 29
 26.7295 316.582 l 29
 223.753 392.036 l 29
 706.962 394.077 l 21
EndSplineSet
EndChar
StartChar: numbersign
Encoding: 35 35
Width: 492
Flags: HW
Fore
140.711 38.2637 m 25
 144.361 513 l 25
 72 783 l 17
 360 792 l 13
 174 513 l 25
 168.703 38.2637 l 25
 140.711 38.2637 l 25
EndSplineSet
EndChar
StartChar: dollar
Encoding: 36 36
Width: 932
Flags: HW
Fore
450 300 m 25
 523.417 465 l 25
 339 465 l 25
 420.362 300 l 25
 450 300 l 25
423.948 270.032 m 25
 423.948 41.2646 l 29
 447 39 l 29
 447 267.771 l 25
 423.948 270.032 l 25
709.698 267.264 m 9
 228.583 268.712 l 25
 31.5596 193.259 l 25
 31.8301 377.677 l 25
 226.743 297.973 l 25
 713.232 294.014 l 25
 862.918 417.04 l 25
 880.879 390.014 l 25
 829.786 327.088 l 25
 832.682 255.084 l 25
 886.615 210.005 l 25
 889.558 171 l 25
 709.698 267.264 l 9
710.232 531.014 m 17
 889.911 432 l 25
 886.968 471.005 l 25
 833.034 516.083 l 25
 830.14 588.088 l 25
 881.232 651.014 l 25
 863.271 678.04 l 25
 707.232 558.014 l 25
 227.066 558.61 l 25
 30.2705 637.937 l 25
 30 453.519 l 25
 227.023 528.973 l 25
 710.232 531.014 l 17
EndSplineSet
EndChar
StartChar: percent
Encoding: 37 37
Width: 916
Flags: HW
Fore
165.734 87 m 29
 351.232 153.135 l 29
 555.232 153.434 l 29
 552.936 176.483 l 29
 348.938 176.184 l 29
 165.498 248.366 l 29
 165.734 87 l 29
40.2363 269.566 m 25
 225.734 335.701 l 25
 429.734 336 l 25
 427.438 359.05 l 25
 223.439 358.75 l 25
 40 430.933 l 25
 40.2363 269.566 l 25
778.609 40.4287 m 25
 780.81 565.826 l 25
 856.263 762.85 l 25
 671.845 762.579 l 25
 751.549 567.666 l 25
 751.596 49.3887 l 25
 778.609 40.4287 l 25
584.499 39.8496 m 25
 586.699 565.247 l 25
 662.152 762.271 l 25
 477.734 762 l 25
 557.438 567.087 l 25
 557.485 48.8096 l 25
 584.499 39.8496 l 25
165.531 420.816 m 25
 351.029 486.951 l 25
 555.029 487.25 l 25
 552.732 510.299 l 25
 348.734 510 l 25
 165.295 582.182 l 25
 165.531 420.816 l 25
EndSplineSet
EndChar
StartChar: ampersand
Encoding: 38 38
Width: 2146
Flags: HW
Fore
1930.76 39.8496 m 25
 1932.96 565.247 l 25
 2008.42 762.271 l 25
 1824 762 l 25
 1903.7 567.087 l 25
 1903.75 48.8096 l 25
 1930.76 39.8496 l 25
1697.02 351.419 m 25
 1882.52 417.555 l 25
 2086.52 417.854 l 25
 2084.22 440.903 l 25
 1880.22 440.604 l 25
 1696.78 512.786 l 25
 1697.02 351.419 l 25
1694.27 183.415 m 25
 1879.76 249.551 l 25
 2083.76 249.85 l 25
 2081.47 272.899 l 25
 1877.47 272.599 l 25
 1694.03 344.78 l 25
 1694.27 183.415 l 25
1665.18 49.1211 m 25
 1667.38 574.519 l 25
 1742.84 771.543 l 25
 1558.42 771.271 l 25
 1638.12 576.358 l 25
 1638.17 58.0811 l 25
 1665.18 49.1211 l 25
1480.76 48.8496 m 25
 1482.96 574.247 l 25
 1558.42 771.271 l 25
 1374 771 l 25
 1453.7 576.087 l 25
 1453.75 57.8096 l 25
 1480.76 48.8496 l 25
1057.52 369.854 m 25
 1243.02 435.99 l 25
 1447.02 436.288 l 25
 1444.72 459.337 l 25
 1240.72 459.038 l 25
 1057.28 531.22 l 25
 1057.52 369.854 l 25
1054.76 201.85 m 25
 1240.26 267.986 l 25
 1444.26 268.285 l 25
 1441.97 291.333 l 25
 1237.97 291.034 l 25
 1054.53 363.214 l 25
 1054.76 201.85 l 25
1029 210.992 m 25
 757.912 209.13 l 25
 561 284.872 l 25
 561 100.454 l 25
 757.912 179.491 l 25
 1029 183 l 25
 1029 210.992 l 25
1026 407.41 m 25
 754.912 405.548 l 25
 558 481.29 l 25
 558 296.872 l 25
 754.912 375.909 l 25
 1026 379.418 l 25
 1026 407.41 l 25
1023 592.12 m 25
 751.912 590.258 l 25
 555 666 l 25
 555 481.582 l 25
 751.912 560.619 l 25
 1023 564.128 l 25
 1023 592.12 l 25
282.927 214.455 m 17
 515.995 48 l 25
 530.38 68.5498 l 25
 433.795 150.75 l 25
 433.795 300.765 l 25
 538.6 376.8 l 25
 528.325 403.515 l 25
 283.78 230.895 l 25
 282.927 214.455 l 17
291.927 571.455 m 17
 524.995 405 l 25
 539.38 425.55 l 25
 442.795 507.75 l 25
 442.795 657.765 l 25
 547.6 733.8 l 25
 537.325 760.515 l 25
 292.78 587.895 l 25
 291.927 571.455 l 17
40 391.2 m 17
 273.068 224.745 l 25
 287.453 245.295 l 25
 190.868 327.495 l 25
 190.868 477.51 l 25
 295.673 553.545 l 25
 285.398 580.26 l 25
 40.8535 407.64 l 25
 40 391.2 l 17
EndSplineSet
EndChar
StartChar: quotesingle
Encoding: 39 39
Width: 1004
Flags: HW
Fore
577.512 280.797 m 29
 625.781 420.146 l 29
 485.728 408.256 l 29
 555.004 278.886 l 29
 577.512 280.797 l 29
569.854 240.36 m 29
 581.854 120.362 l 29
 599.524 120.316 l 29
 587.524 240.316 l 29
 569.854 240.36 l 29
437.331 268.896 m 29
 485.602 408.245 l 29
 345.546 396.355 l 29
 414.822 266.986 l 29
 437.331 268.896 l 29
428.173 224.648 m 29
 441.674 108.463 l 29
 459.343 108.415 l 29
 445.843 224.604 l 29
 428.173 224.648 l 29
289.309 256.857 m 29
 337.58 396.206 l 29
 197.524 384.316 l 29
 266.801 254.947 l 29
 289.309 256.857 l 29
279.656 205.894 m 29
 293.155 89.7061 l 29
 310.826 89.6602 l 29
 297.326 205.849 l 29
 279.656 205.894 l 29
933.497 325.588 m 29
 271.929 554.551 l 29
 61.1016 562.5 l 29
 133.747 732.007 l 29
 283.604 581.793 l 29
 956.524 336.316 l 29
 933.497 325.588 l 29
954 291 m 29
 247.539 212.896 l 29
 56.5244 123.316 l 29
 43.3848 307.266 l 29
 245.428 242.459 l 29
 968.524 321.316 l 29
 954 291 l 29
EndSplineSet
EndChar
StartChar: asterisk
Encoding: 42 42
Width: 1299
Flags: W
HStem: 285.766 23.0479<224 427> 453.77 22.2793<227 525>
DStem: 943.108 432.645 959.197 449.308 1055.52 348.302 1071.61 364.966 1253.84 386.127 1260.61 358.966 655.936 253.84 663.103 225.08
Fore
42.9902 387.634 m 25
 228.488 453.77 l 25
 528 453 l 29
 525.702 476.049 l 29
 226.193 476.818 l 25
 42.7539 549 l 25
 42.9902 387.634 l 25
40.2363 219.63 m 25
 225.734 285.766 l 25
 429.734 286.064 l 25
 427.438 309.113 l 25
 223.438 308.813 l 25
 40 380.994 l 25
 40.2363 219.63 l 25
885.649 318.392 m 25
 786.605 367.966 l 25
 581.921 419.104 l 25
 687.875 570.047 l 25
 803.634 392.225 l 25
 909.605 325.966 l 25
 885.649 318.392 l 25
1055.52 348.302 m 25
 943.108 432.645 l 25
 754.418 489.698 l 25
 794.293 540.033 l 25
 604.099 602.481 l 25
 711.459 738 l 25
 814.743 565.847 l 25
 854.62 616.183 l 25
 959.197 449.308 l 25
 1071.61 364.966 l 25
 1055.52 348.302 l 25
1260.61 358.966 m 25
 663.103 225.08 l 25
 490.352 103.968 l 25
 445.754 282.912 l 25
 655.936 253.84 l 25
 1253.84 386.127 l 25
 1260.61 358.966 l 25
EndSplineSet
MinimumDistance: x28,-1 
EndChar
StartChar: plus
Encoding: 43 43
Width: 957
Flags: HW
Fore
39.8887 455.303 m 21
 203.135 350.303 l 29
 206.135 392.303 l 29
 161.135 419.303 l 29
 155.135 527.303 l 29
 203.135 563.303 l 29
 191.193 602.303 l 29
 41.1348 479.303 l 29
 39.8887 455.303 l 21
41.1934 215.303 m 29
 185.252 317.303 l 29
 203.193 299.303 l 29
 155.193 263.303 l 29
 161.193 155.303 l 29
 206.193 128.303 l 29
 203.193 86.3027 l 29
 39.9473 191.303 l 13
 41.1934 215.303 l 29
173.135 464.303 m 21
 336.381 359.303 l 29
 339.381 401.303 l 29
 294.381 428.303 l 29
 288.381 536.303 l 29
 336.381 572.303 l 29
 324.439 611.303 l 29
 174.381 488.303 l 29
 173.135 464.303 l 21
174.439 224.303 m 29
 318.498 326.303 l 29
 336.439 308.303 l 29
 288.439 272.303 l 29
 294.439 164.303 l 29
 339.439 137.303 l 29
 336.439 95.3027 l 29
 173.193 200.303 l 13
 174.439 224.303 l 29
351.381 145.668 m 29
 536.976 79.8037 l 29
 794.646 79.3545 l 29
 792.381 56.3027 l 29
 534.713 56.752 l 29
 351.439 14.3027 l 29
 351.381 145.668 l 29
351.381 316.668 m 29
 536.976 250.804 l 29
 794.646 250.354 l 29
 792.381 227.303 l 29
 534.713 227.752 l 29
 351.381 155.303 l 29
 351.381 316.668 l 29
351.381 484.668 m 29
 536.976 418.804 l 29
 794.646 418.354 l 29
 792.381 395.303 l 29
 534.713 395.752 l 29
 351.381 323.303 l 29
 351.381 484.668 l 29
354.381 652.668 m 29
 539.976 586.804 l 29
 797.646 586.354 l 29
 795.381 563.303 l 29
 537.713 563.752 l 29
 354.381 491.303 l 29
 354.381 652.668 l 29
788.389 29.3027 m 29
 786.742 586.088 l 29
 711 783 l 29
 895.418 783 l 29
 816.381 586.088 l 29
 816.381 29.3027 l 29
 788.389 29.3027 l 29
EndSplineSet
EndChar
StartChar: comma
Encoding: 44 44
Width: 799
Flags: W
HStem: 105 23.501<205 627> 228 23.501<379 631> 396 23.501<379 631> 564 23.501<382 629> 763.697 20G<554.619 739.037>
VStem: 630.361 29.6387<30 228 251 396 419 564>
Fore
30 192 m 25
 206.536 128.501 l 25
 629.265 128.052 l 25
 627 105 l 25
 204.273 105.449 l 25
 30 30 l 25
 30 192 l 25
195 317.365 m 25
 380.595 251.501 l 25
 638.265 251.052 l 25
 636 228 l 25
 378.332 228.449 l 25
 195 165 l 25
 195 317.365 l 25
195 485.365 m 25
 380.595 419.501 l 25
 638.265 419.052 l 25
 636 396 l 25
 378.332 396.449 l 25
 195 324 l 25
 195 485.365 l 25
198 653.365 m 25
 383.595 587.501 l 25
 641.265 587.052 l 25
 639 564 l 25
 381.332 564.449 l 25
 198 492 l 25
 198 653.365 l 25
632.008 30 m 25
 630.361 586.785 l 25
 554.619 783.697 l 25
 739.037 783.697 l 25
 660 586.785 l 25
 660 30 l 25
 632.008 30 l 25
EndSplineSet
MinimumDistance: x28,-1 
EndChar
StartChar: hyphen
Encoding: 45 45
Width: 885
Flags: W
DStem: 387 675 402 636 30 423 249 525 609 675 624 636 252 423 471 525 840 681 855 642 483 429 702 531
Fore
481.754 405 m 21
 822 162 l 29
 843 192 l 29
 702 312 l 29
 702 531 l 29
 855 642 l 29
 840 681 l 29
 483 429 l 29
 481.754 405 l 21
250.754 399 m 17
 591 156 l 25
 612 186 l 25
 471 306 l 25
 471 525 l 25
 624 636 l 25
 609 675 l 25
 252 423 l 25
 250.754 399 l 17
28.7539 399 m 17
 369 156 l 25
 390 186 l 25
 249 306 l 25
 249 525 l 25
 402 636 l 25
 387 675 l 25
 30 423 l 25
 28.7539 399 l 17
EndSplineSet
MinimumDistance: x5,-1 
EndChar
StartChar: period
Encoding: 46 46
Width: 734
Flags: W
HStem: 748 20G<490.118 674.536>
VStem: 565.86 29.6387<40.0119 571>
DStem: 30 444 151.246 408 193.246 339 196.246 381 39 180 160.246 144 202.246 75 205.246 117 181.305 591 193.246 552 31.2461 468 145.246 516 190.305 327 202.246 288 40.2461 204 154.246 252 204 312 325.246 276 367.246 207 370.246 249 355.305 459 367.246 420 205.246 336 319.246 384 372 441 493.246 405 535.246 336 538.246 378 523.305 588 535.246 549 373.246 465 487.246 513
Fore
30 444 m 17
 193.246 339 l 25
 196.246 381 l 25
 151.246 408 l 25
 145.246 516 l 25
 193.246 552 l 25
 181.305 591 l 25
 31.2461 468 l 25
 30 444 l 17
372 441 m 17
 535.246 336 l 25
 538.246 378 l 25
 493.246 405 l 25
 487.246 513 l 25
 535.246 549 l 25
 523.305 588 l 25
 373.246 465 l 25
 372 441 l 17
39 180 m 17
 202.246 75 l 25
 205.246 117 l 25
 160.246 144 l 25
 154.246 252 l 25
 202.246 288 l 25
 190.305 327 l 25
 40.2461 204 l 25
 39 180 l 17
204 312 m 17
 367.246 207 l 25
 370.246 249 l 25
 325.246 276 l 25
 319.246 384 l 25
 367.246 420 l 25
 355.305 459 l 25
 205.246 336 l 25
 204 312 l 17
567.957 38.2637 m 25
 565.86 571.088 l 25
 490.118 768 l 25
 674.536 768 l 25
 595.499 571.088 l 25
 595.949 38.2637 l 25
 567.957 38.2637 l 25
EndSplineSet
MinimumDistance: x36,-1 
EndChar
StartChar: slash
Encoding: 47 47
Width: 1349
Flags: W
HStem: 348 23.0518<700 768> 752.912 20G<200.619 385.037> 760 20G<877.582 1062> 760.697 20G<691.883 876.301 1104.61 1289.03>
VStem: 276.361 29.6387<24 576> 767.625 29.6387<27 348 371 583> 953.324 29.6387<27 583> 1180.35 29.6387<27 583>
DStem: 93 333 214.246 297 256.246 228 259.246 270 244.305 480 256.246 441 94.2461 357 208.246 405 994.754 339 1116 303 1158 234 1161 276 1146.06 486 1158 447 996 363 1110 411
Fore
994.754 339 m 17
 1158 234 l 25
 1161 276 l 25
 1116 303 l 25
 1110 411 l 25
 1158 447 l 25
 1146.06 486 l 25
 996 363 l 25
 994.754 339 l 17
93 333 m 17
 256.246 228 l 25
 259.246 270 l 25
 214.246 297 l 25
 208.246 405 l 25
 256.246 441 l 25
 244.305 480 l 25
 94.2461 357 l 25
 93 333 l 17
1182 27 m 25
 1180.35 583.785 l 25
 1104.61 780.697 l 25
 1289.03 780.697 l 25
 1209.99 583.785 l 25
 1209.99 27 l 25
 1182 27 l 25
278.008 19.2148 m 25
 276.361 576 l 25
 200.619 772.912 l 25
 385.037 772.912 l 25
 306 576 l 25
 306 19.2148 l 25
 278.008 19.2148 l 25
954.971 26.3027 m 25
 953.324 583.088 l 25
 877.582 780 l 25
 1062 780 l 25
 982.963 583.088 l 25
 982.963 26.3027 l 25
 954.971 26.3027 l 25
773.264 348 m 25
 699 348 l 25
 515.668 275.551 l 25
 515.668 339.767 l 25
 327.809 270.61 l 25
 327.809 443.502 l 25
 515.668 372.698 l 25
 515.668 436.916 l 25
 701.263 371.052 l 25
 775.527 371.052 l 25
 773.264 348 l 25
769.271 27 m 25
 767.625 583.785 l 25
 691.883 780.697 l 25
 876.301 780.697 l 25
 797.264 583.785 l 25
 797.264 27 l 25
 769.271 27 l 25
EndSplineSet
MinimumDistance: x20,-1 
EndChar
StartChar: zero
Encoding: 48 48
Width: 524
Flags: HW
Fore
318 339 m 17
 481.246 234 l 25
 484.246 276 l 25
 439.246 303 l 25
 433.246 411 l 25
 481.246 447 l 25
 469.305 486 l 25
 319.246 363 l 25
 318 339 l 17
184.754 339 m 17
 348 234 l 25
 351 276 l 25
 306 303 l 25
 300 411 l 25
 348 447 l 25
 336.059 486 l 25
 186 363 l 25
 184.754 339 l 17
140.711 38.2637 m 25
 138.614 571.088 l 25
 62.8721 768 l 25
 247.29 768 l 25
 168.253 571.088 l 25
 168.703 38.2637 l 25
 140.711 38.2637 l 25
EndSplineSet
EndChar
StartChar: one
Encoding: 49 49
Width: 304
Flags: HW
Fore
137.839 38.2637 m 29
 135.742 571.088 l 29
 60 768 l 29
 244.418 768 l 29
 165.381 571.088 l 29
 165.831 38.2637 l 29
 137.839 38.2637 l 29
EndSplineSet
EndChar
StartChar: two
Encoding: 50 50
Width: 492
Flags: HW
Fore
319.421 41.2637 m 29
 317.324 574.088 l 29
 241.582 771 l 29
 426 771 l 29
 346.963 574.088 l 29
 347.413 41.2637 l 29
 319.421 41.2637 l 29
140.711 38.2637 m 25
 138.614 571.088 l 25
 62.8721 768 l 25
 247.29 768 l 25
 168.253 571.088 l 25
 168.703 38.2637 l 25
 140.711 38.2637 l 25
EndSplineSet
EndChar
StartChar: three
Encoding: 51 51
Width: 688
Flags: HW
Fore
521.839 32.2637 m 25
 519.742 565.088 l 25
 444 762 l 25
 628.418 762 l 25
 549.381 565.088 l 25
 549.831 32.2637 l 25
 521.839 32.2637 l 25
325.421 35.2637 m 25
 323.324 568.088 l 25
 247.582 765 l 25
 432 765 l 25
 352.963 568.088 l 25
 353.413 35.2637 l 25
 325.421 35.2637 l 25
140.711 38.2637 m 25
 138.614 571.088 l 25
 62.8721 768 l 25
 247.29 768 l 25
 168.253 571.088 l 25
 168.703 38.2637 l 25
 140.711 38.2637 l 25
EndSplineSet
EndChar
StartChar: four
Encoding: 52 52
Width: 649
Flags: HW
Fore
282.303 57 m 29
 280.656 315 l 29
 126 558 l 29
 501 558 l 29
 310.295 315 l 29
 310.295 57 l 29
 282.303 57 l 29
511.295 570 m 29
 424.736 765.697 l 25
 609.154 765.697 l 25
 511.295 570 l 29
312.258 569.303 m 29
 225.699 765 l 25
 410.117 765 l 25
 312.258 569.303 l 29
126.56 570 m 29
 40 765.697 l 25
 224.418 765.697 l 25
 126.56 570 l 29
EndSplineSet
EndChar
StartChar: five
Encoding: 53 53
Width: 649
Flags: HW
Fore
511.295 570 m 25
 424.736 765.697 l 25
 609.154 765.697 l 25
 511.295 570 l 25
312.258 569.303 m 25
 225.699 765 l 25
 410.117 765 l 25
 312.258 569.303 l 25
126.56 570 m 25
 40 765.697 l 25
 224.418 765.697 l 25
 126.56 570 l 25
392.008 39 m 25
 389.911 370.824 l 25
 314.169 567.736 l 25
 498.587 567.736 l 25
 419.55 370.824 l 25
 420 39 l 25
 392.008 39 l 25
206.008 39 m 25
 203.911 370.824 l 25
 128.169 567.736 l 25
 312.587 567.736 l 25
 233.55 370.824 l 25
 234 39 l 25
 206.008 39 l 25
EndSplineSet
EndChar
StartChar: six
Encoding: 54 54
Width: 672
Flags: HW
Fore
516.948 39 m 29
 516.498 399.808 l 29
 444.049 583.14 l 29
 508.265 583.14 l 29
 439.108 771 l 29
 612 771 l 29
 541.196 583.14 l 29
 605.414 583.14 l 29
 539.55 397.546 l 29
 540 36.7363 l 29
 516.948 39 l 29
164.84 39 m 25
 164.39 399.808 l 25
 91.9414 583.14 l 25
 156.157 583.14 l 25
 87 771 l 25
 259.892 771 l 25
 189.088 583.14 l 25
 253.306 583.14 l 25
 187.442 397.546 l 25
 187.892 36.7363 l 25
 164.84 39 l 25
339.948 38.2637 m 25
 339.498 399.072 l 25
 267.049 582.404 l 25
 331.265 582.404 l 25
 262.108 770.264 l 25
 435 770.264 l 25
 364.196 582.404 l 25
 428.414 582.404 l 25
 362.55 396.81 l 25
 363 36 l 25
 339.948 38.2637 l 25
EndSplineSet
EndChar
StartChar: seven
Encoding: 55 55
Width: 649
Flags: HW
Fore
284.008 69 m 25
 285.361 147 l 25
 127.705 363 l 25
 502.705 363 l 25
 315 147 l 25
 312 69 l 25
 284.008 69 l 25
511.59 371.303 m 25
 425.031 567 l 25
 609.449 567 l 25
 511.59 371.303 l 25
312.553 370.605 m 25
 225.994 566.303 l 25
 410.412 566.303 l 25
 312.553 370.605 l 25
126.854 371.303 m 25
 40.2949 567 l 25
 224.713 567 l 25
 126.854 371.303 l 25
511.295 570 m 25
 424.736 765.697 l 25
 609.154 765.697 l 25
 511.295 570 l 25
312.258 569.303 m 25
 225.699 765 l 25
 410.117 765 l 25
 312.258 569.303 l 25
126.56 570 m 25
 40 765.697 l 25
 224.418 765.697 l 25
 126.56 570 l 25
EndSplineSet
EndChar
StartChar: eight
Encoding: 56 56
Width: 681
Flags: HW
Fore
419.008 33 m 25
 417.903 196.824 l 25
 342.161 393.736 l 25
 526.579 393.736 l 25
 447.542 196.824 l 25
 447 33 l 25
 419.008 33 l 25
233.008 33 m 25
 231.903 196.824 l 25
 156.161 393.736 l 25
 340.579 393.736 l 25
 261.542 196.824 l 25
 261 33 l 25
 233.008 33 l 25
525.498 402.808 m 25
 453.049 586.14 l 25
 517.265 586.14 l 25
 448.108 774 l 25
 621 774 l 25
 537 588 l 25
 614.414 586.14 l 25
 525.498 402.808 l 25
339.498 399.072 m 25
 267.049 582.404 l 25
 331.265 582.404 l 25
 262.108 770.264 l 25
 435 770.264 l 25
 351 585 l 25
 428.414 582.404 l 25
 339.498 399.072 l 25
161.39 399.808 m 25
 88.9414 583.14 l 25
 165 582 l 29
 84 771 l 25
 256.892 771 l 25
 186.088 583.14 l 25
 250.306 583.14 l 25
 161.39 399.808 l 25
EndSplineSet
EndChar
StartChar: nine
Encoding: 57 57
Width: 649
Flags: HW
Fore
485.008 36 m 29
 485.911 169.824 l 29
 410.169 366.736 l 29
 594.587 366.736 l 29
 515.55 169.824 l 29
 513 36 l 29
 485.008 36 l 29
288.59 39 m 29
 289.493 172.824 l 29
 213.751 369.736 l 29
 398.169 369.736 l 29
 319.132 172.824 l 29
 316.582 39 l 29
 288.59 39 l 29
103.88 42 m 29
 104.783 175.824 l 29
 29.041 372.736 l 29
 213.459 372.736 l 29
 134.422 175.824 l 29
 131.872 42 l 29
 103.88 42 l 29
511.59 371.303 m 29
 425.031 567 l 29
 609.449 567 l 29
 511.59 371.303 l 29
312.553 370.605 m 29
 225.994 566.303 l 29
 410.412 566.303 l 29
 312.553 370.605 l 29
126.854 371.303 m 29
 40.2949 567 l 29
 224.713 567 l 29
 126.854 371.303 l 29
511.295 570 m 29
 424.736 765.697 l 29
 609.154 765.697 l 29
 511.295 570 l 29
312.258 569.303 m 29
 225.699 765 l 29
 410.117 765 l 29
 312.258 569.303 l 29
126.56 570 m 29
 40 765.697 l 29
 224.418 765.697 l 29
 126.56 570 l 29
EndSplineSet
EndChar
StartChar: colon
Encoding: 58 58
Width: 952
Flags: W
HStem: 300.736 23.0518<412 772> 495.483 27.542<239 772> 751.736 20G<697.846 882.264>
VStem: 773.588 29.6387<42 574>
DStem: 519.628 602.908 529 631.025 772 523.025 780.852 549.581
Fore
772 523.025 m 25
 519.628 602.908 l 25
 308.869 593.321 l 25
 367.187 768.276 l 25
 529 631.025 l 25
 780.852 549.581 l 25
 772 523.025 l 25
772 523.025 m 25
 239.176 525.122 l 25
 42.2637 600.864 l 25
 42.2637 416.446 l 25
 239.176 495.483 l 25
 772 495.033 l 25
 772 523.025 l 25
775.685 42 m 25
 773.588 574.824 l 25
 697.846 771.736 l 25
 882.264 771.736 l 25
 803.227 574.824 l 25
 803.677 42 l 25
 775.685 42 l 25
772 323.788 m 25
 411.191 324.238 l 25
 227.859 396.688 l 25
 227.859 332.472 l 25
 40 401.628 l 25
 40 228.736 l 25
 227.859 299.54 l 25
 227.859 235.322 l 25
 413.454 301.187 l 25
 774.264 300.736 l 25
 772 323.788 l 25
772 523.025 m 25
 239.176 525.122 l 25
 42.2637 600.864 l 25
 42.2637 416.446 l 25
 239.176 495.483 l 25
 772 495.033 l 25
 772 523.025 l 25
EndSplineSet
MinimumDistance: x16,-1 
EndChar
StartChar: semicolon
Encoding: 59 59
Width: 998
Flags: W
HStem: 111 29.6387<236 829.941> 516.361 30.6309<713 825> 739.736 20G<755.081 939.499> 748 20G<176.784 361.202 364.494 548.912>
VStem: 252.526 29.6387<147.118 570.889> 440.236 29.6387<147.118 570.889> 830.823 29.6387<102 562>
Fore
827.912 546.992 m 29
 713.912 546 l 25
 517 621.742 l 25
 517 437.324 l 25
 713.912 516.361 l 25
 827.912 519 l 29
 827.912 546.992 l 29
830.912 141.992 m 25
 236.912 140.639 l 25
 40 216.381 l 25
 40 31.9629 l 25
 236.912 111 l 25
 830.912 114 l 25
 830.912 141.992 l 25
833.912 102 m 25
 830.823 562.824 l 25
 755.081 759.736 l 25
 939.499 759.736 l 25
 860.462 562.824 l 25
 861.904 102 l 25
 833.912 102 l 25
442.333 143.264 m 25
 440.236 571.088 l 25
 364.494 768 l 25
 548.912 768 l 25
 469.875 571.088 l 25
 470.325 143.264 l 25
 442.333 143.264 l 25
254.623 143.264 m 25
 252.526 571.088 l 25
 176.784 768 l 25
 361.202 768 l 25
 282.165 571.088 l 25
 282.615 143.264 l 25
 254.623 143.264 l 25
EndSplineSet
MinimumDistance: x16,-1 
EndChar
StartChar: less
Encoding: 60 60
Width: 837
Flags: HW
HStem: 413.747 27.9922<235 793 455.531 793.697>
DStem: 254.754 558 376 522 418 453 421 495 272.754 255 394 219 436 150 439 192 406.059 705 418 666 256 582 370 630 424.059 402 436 363 274 279 388 327 548.754 549 670 513 712 444 715 486 563.754 258 685 222 727 153 730 195 700.059 696 712 657 550 573 664 621 715.059 405 727 366 565 282 679 330
Fore
548.754 549 m 17
 712 444 l 25
 715 486 l 25
 670 513 l 25
 664 621 l 25
 712 657 l 25
 700.059 696 l 25
 550 573 l 25
 548.754 549 l 17
563.754 258 m 17
 727 153 l 25
 730 195 l 25
 685 222 l 25
 679 330 l 25
 727 366 l 25
 715.059 405 l 25
 565 282 l 25
 563.754 258 l 17
254.754 558 m 17
 418 453 l 25
 421 495 l 25
 376 522 l 25
 370 630 l 25
 418 666 l 25
 406.059 705 l 25
 256 582 l 25
 254.754 558 l 17
272.754 255 m 17
 436 150 l 25
 439 192 l 25
 394 219 l 25
 388 327 l 25
 436 363 l 25
 424.059 402 l 25
 274 279 l 25
 272.754 255 l 17
793.697 441.739 m 25
 236.912 443.386 l 25
 40 519.128 l 25
 40 334.71 l 25
 236.912 413.747 l 25
 793.697 413.747 l 25
 793.697 441.739 l 25
EndSplineSet
MinimumDistance: x10,-1 
EndChar
StartChar: equal
Encoding: 61 61
Width: 843
Flags: W
HStem: 288 27.9922<231 786 449.619 787.785> 479.747 27.9922<226 784 446.531 784.697>
DStem: 331.754 627 453 591 495 522 498 564 355.754 138 477 102 519 33 522 75 483.059 774 495 735 333 651 447 699 507.059 285 519 246 357 162 471 210
Fore
355.754 138 m 17
 519 33 l 25
 522 75 l 25
 477 102 l 25
 471 210 l 25
 519 246 l 25
 507.059 285 l 25
 357 162 l 25
 355.754 138 l 17
787.785 315.992 m 25
 231 317.639 l 25
 34.0879 393.381 l 25
 34.0879 208.963 l 25
 231 288 l 25
 787.785 288 l 25
 787.785 315.992 l 25
331.754 627 m 21
 495 522 l 29
 498 564 l 29
 453 591 l 29
 447 699 l 29
 495 735 l 29
 483.059 774 l 29
 333 651 l 29
 331.754 627 l 21
784.697 507.739 m 25
 227.912 509.386 l 25
 31 585.128 l 25
 31 400.71 l 25
 227.912 479.747 l 25
 784.697 479.747 l 25
 784.697 507.739 l 25
EndSplineSet
MinimumDistance: x2,-1 
EndChar
StartChar: greater
Encoding: 62 62
Width: 774
Flags: HW
HStem: 369 24<225 408> 757 20G<529.582 714> 760 20G<289.582 474>
VStem: 365.324 29.6387<38 369 394 582> 605.324 29.6387<24 580>
DStem: 408 369 529.246 333 571.246 264 574.246 306 559.305 516 571.246 477 409.246 393 523.246 441
Fore
17.7969 300.816 m 25
 203.295 366.951 l 25
 360 366 l 25
 357.703 389.05 l 25
 201 390 l 25
 17.5605 462.183 l 25
 17.7969 300.816 l 25
394.754 360 m 17
 558 255 l 25
 561 297 l 25
 516 324 l 25
 510 432 l 25
 558 468 l 25
 546.059 507 l 25
 396 384 l 25
 394.754 360 l 17
606.971 23.3027 m 25
 605.324 580.088 l 25
 529.582 777 l 25
 714 777 l 25
 634.963 580.088 l 25
 634.963 23.3027 l 25
 606.971 23.3027 l 25
366.971 26.3027 m 25
 365.324 583.088 l 25
 289.582 780 l 25
 474 780 l 25
 394.963 583.088 l 25
 394.963 26.3027 l 25
 366.971 26.3027 l 25
EndSplineSet
MinimumDistance: x18,-1 
EndChar
StartChar: question
Encoding: 63 63
Width: 835
Flags: W
HStem: 376.093 27.9922<225 399 445.531 783.697 457 783>
DStem: 624.98 757.943 649.298 744.078 349.195 274.258 374.942 259.577
Fore
649.298 744.078 m 25
 374.942 259.577 l 25
 343.207 51 l 25
 183 142.346 l 25
 349.195 274.258 l 25
 624.98 757.943 l 25
 649.298 744.078 l 25
783.697 404.085 m 25
 226.912 405.731 l 25
 30 481.474 l 25
 30 297.056 l 25
 226.912 376.093 l 25
 783.697 376.093 l 25
 783.697 404.085 l 25
EndSplineSet
MinimumDistance: x0,-1 
EndChar
StartChar: at
Encoding: 64 64
Width: 869
Flags: W
HStem: 330 27.9922<500 830.489> 760 20G<168.118 352.536>
VStem: 243.86 29.6387<41 583>
DStem: 50 480 171.246 444 213.246 375 216.246 417 63.2461 210 184.492 174 226.492 105 229.492 147 201.305 627 213.246 588 51.2461 504 165.246 552 214.551 357 226.492 318 64.4922 234 178.492 282
Fore
63.2461 210 m 17
 226.492 105 l 25
 229.492 147 l 25
 184.492 174 l 25
 178.492 282 l 25
 226.492 318 l 25
 214.551 357 l 25
 64.4922 234 l 25
 63.2461 210 l 17
50 480 m 17
 213.246 375 l 25
 216.246 417 l 25
 171.246 444 l 25
 165.246 552 l 25
 213.246 588 l 25
 201.305 627 l 25
 51.2461 504 l 25
 50 480 l 17
834.246 357.992 m 25
 500.158 360.676 l 25
 303.246 436.418 l 25
 303.246 252 l 25
 500.158 331.037 l 25
 834.246 330 l 25
 834.246 357.992 l 25
245.507 26.3027 m 25
 243.86 583.088 l 25
 168.118 780 l 25
 352.536 780 l 25
 273.499 583.088 l 25
 273.499 26.3027 l 25
 245.507 26.3027 l 25
EndSplineSet
MinimumDistance: x26,-1 
EndChar
StartChar: B
Encoding: 66 66
Width: 932
Flags: W
HStem: 267.264 26.75<228 709.464> 528.973 29.041<227 707>
Fore
709.698 267.264 m 9
 228.583 268.712 l 25
 31.5596 193.259 l 25
 31.8301 377.677 l 25
 226.743 297.973 l 25
 713.232 294.014 l 25
 862.918 417.04 l 25
 880.879 390.014 l 25
 829.786 327.088 l 25
 832.682 255.084 l 25
 886.615 210.005 l 25
 889.558 171 l 25
 709.698 267.264 l 9
710.232 531.014 m 21
 889.911 432 l 29
 886.968 471.005 l 29
 833.034 516.083 l 29
 830.14 588.088 l 29
 881.232 651.014 l 29
 863.271 678.04 l 29
 707.232 558.014 l 29
 227.066 558.61 l 29
 30.2705 637.937 l 29
 30 453.519 l 29
 227.023 528.973 l 29
 710.232 531.014 l 21
EndSplineSet
EndChar
StartChar: D
Encoding: 68 68
Width: 819
Flags: HW
Fore
40 426 m 17
 203.246 321 l 25
 206.246 363 l 25
 161.246 390 l 25
 155.246 498 l 25
 203.246 534 l 25
 191.305 573 l 25
 41.2461 450 l 25
 40 426 l 17
370 567 m 17
 533.246 462 l 25
 536.246 504 l 25
 491.246 531 l 25
 485.246 639 l 25
 533.246 675 l 25
 521.305 714 l 25
 371.246 591 l 25
 370 567 l 17
684 18 m 29
 683.683 543.397 l 25
 759.136 740.421 l 25
 574.718 740.15 l 25
 654.422 545.237 l 25
 656.986 26.96 l 29
 684 18 l 29
258.236 339.004 m 25
 443.734 405.14 l 25
 647.734 405.438 l 25
 645.437 428.487 l 25
 441.439 428.188 l 25
 258 500.37 l 25
 258.236 339.004 l 25
255.482 171 m 25
 440.98 237.136 l 25
 644.98 237.435 l 25
 642.684 260.483 l 25
 438.685 260.184 l 25
 255.246 332.364 l 25
 255.482 171 l 25
EndSplineSet
EndChar
StartChar: H
Encoding: 72 72
Width: 623
Flags: HW
DStem: 40 372 161.246 336 203.246 267 206.246 309 191.305 519 203.246 480 41.2461 396 155.246 444 205 504 326.246 468 368.246 399 371.246 441 209.754 249 430 156 559 30 571 66 356.305 651 368.246 612 206.246 528 320.246 576 373 633 494.246 597 536.246 528 539.246 570 524.305 780 536.246 741 374.246 657 488.246 705 568 525 583 486 211 273 430 375
Fore
36.1572 311.738 m 17
 159 228 l 25
 161.258 261.495 l 25
 127.396 283.028 l 25
 122.88 369.158 l 25
 159 397.868 l 25
 150.015 428.971 l 25
 37.0957 330.878 l 25
 36.1572 311.738 l 17
184.754 240 m 17
 534 21 l 25
 546 57 l 25
 405 147 l 25
 405 366 l 25
 558 477 l 25
 543 516 l 25
 186 264 l 25
 184.754 240 l 17
408.393 629.963 m 17
 531.235 546.225 l 25
 533.492 579.72 l 25
 499.63 601.253 l 25
 495.115 687.383 l 25
 531.235 716.093 l 25
 522.25 747.195 l 25
 409.33 649.103 l 25
 408.393 629.963 l 17
157.81 421.815 m 17
 280.652 338.077 l 25
 282.91 371.572 l 25
 249.048 393.105 l 25
 244.532 479.235 l 25
 280.652 507.945 l 25
 271.667 539.048 l 25
 158.748 440.955 l 25
 157.81 421.815 l 17
281.973 527.085 m 17
 404.815 443.348 l 25
 407.072 476.843 l 25
 373.21 498.375 l 25
 368.695 584.505 l 25
 404.815 613.215 l 25
 395.829 644.317 l 25
 282.91 546.225 l 25
 281.973 527.085 l 17
EndSplineSet
MinimumDistance: x13,-1 
EndChar
StartChar: K
Encoding: 75 75
Width: 834
Flags: W
HStem: 24 23.501<412 663> 195 23.501<412 663> 363 23.501<412 663> 531 23.501<415 663> 730.697 20G<587.561 771.979>
VStem: 663.303 29.6387<-3 24 47 195 218 363 386 531>
DStem: 17.9414 444 139.188 408 181.188 339 184.188 381 169.246 591 181.188 552 19.1875 468 133.188 516 370.695 669 491.941 633 533.941 564 536.941 606 516 795 533.941 777 371.941 693 485.941 741
Fore
17.9414 444 m 21
 181.188 339 l 29
 184.188 381 l 29
 139.188 408 l 29
 133.188 516 l 29
 181.188 552 l 29
 169.246 591 l 29
 19.1875 468 l 29
 17.9414 444 l 21
371.941 693 m 29
 516 795 l 29
 533.941 777 l 29
 485.941 741 l 29
 491.941 633 l 29
 536.941 606 l 29
 533.941 564 l 29
 370.695 669 l 13
 371.941 693 l 29
227.941 113.365 m 29
 413.536 47.501 l 29
 671.206 47.0518 l 29
 668.941 24 l 29
 411.273 24.4492 l 29
 228 -18 l 29
 227.941 113.365 l 29
227.941 284.365 m 29
 413.536 218.501 l 29
 671.206 218.052 l 29
 668.941 195 l 29
 411.273 195.449 l 29
 227.941 123 l 29
 227.941 284.365 l 29
227.941 452.365 m 29
 413.536 386.501 l 29
 671.206 386.052 l 29
 668.941 363 l 29
 411.273 363.449 l 29
 227.941 291 l 29
 227.941 452.365 l 29
230.941 620.365 m 29
 416.536 554.501 l 29
 674.206 554.052 l 29
 671.941 531 l 29
 414.273 531.449 l 29
 230.941 459 l 29
 230.941 620.365 l 29
664.949 -3 m 29
 663.303 553.785 l 29
 587.561 750.697 l 29
 771.979 750.697 l 29
 692.941 553.785 l 29
 692.941 -3 l 29
 664.949 -3 l 29
EndSplineSet
MinimumDistance: x44,-1 
EndChar
StartChar: L
Encoding: 76 76
Width: 1136
Flags: HW
Fore
970.312 54 m 29
 967.629 571.088 l 29
 891.887 768 l 29
 1076.3 768 l 29
 997.268 571.088 l 29
 999.305 57 l 29
 970.312 54 l 29
963.041 314.052 m 29
 750.373 314.75 l 29
 567.041 387.199 l 29
 567.041 322.983 l 29
 379.182 392.14 l 29
 379.182 219.248 l 29
 567.041 290.052 l 29
 567.041 225.834 l 29
 752.636 291.698 l 29
 965.305 291 l 29
 963.041 314.052 l 29
958.9 502.804 m 29
 746.232 503.502 l 29
 562.9 575.951 l 29
 562.9 511.735 l 29
 375.041 580.892 l 29
 375.041 408 l 29
 562.9 478.804 l 29
 562.9 414.586 l 29
 748.495 480.45 l 29
 961.164 479.752 l 29
 958.9 502.804 l 29
52 225 m 21
 215.246 120 l 29
 218.246 162 l 29
 173.246 189 l 29
 167.246 297 l 29
 215.246 333 l 29
 203.305 372 l 29
 53.2461 249 l 29
 52 225 l 21
40 510 m 21
 203.246 405 l 29
 206.246 447 l 29
 161.246 474 l 29
 155.246 582 l 29
 203.246 618 l 29
 191.305 657 l 29
 41.2461 534 l 29
 40 510 l 21
184.059 246 m 21
 347.305 141 l 29
 350.305 183 l 29
 305.305 210 l 29
 299.305 318 l 29
 347.305 354 l 29
 335.363 393 l 29
 185.305 270 l 29
 184.059 246 l 21
173.059 507 m 21
 336.305 402 l 29
 339.305 444 l 29
 294.305 471 l 29
 288.305 579 l 29
 336.305 615 l 29
 324.363 654 l 29
 174.305 531 l 29
 173.059 507 l 21
EndSplineSet
EndChar
StartChar: M
Encoding: 77 77
Width: 999
Flags: W
HStem: 349.559 22.6016<584 956> 538.558 22.6025<585 958>
DStem: 40 438 161.246 402 203.246 333 206.246 375 191.305 585 203.246 546 41.2461 462 155.246 510
Fore
40 438 m 21
 203.246 333 l 29
 206.246 375 l 29
 161.246 402 l 29
 155.246 510 l 29
 203.246 546 l 29
 191.305 585 l 29
 41.2461 462 l 29
 40 438 l 21
956.982 372.16 m 25
 583.438 372.61 l 25
 400.106 445.06 l 25
 400.106 380.844 l 25
 212.246 450 l 25
 212.246 277.108 l 25
 400.106 347.912 l 25
 400.106 283.694 l 25
 585.7 349.559 l 25
 959.246 349.108 l 25
 956.982 372.16 l 25
957.719 561.16 m 25
 584.174 561.61 l 25
 400.842 634.059 l 25
 400.842 569.843 l 25
 212.982 639 l 25
 212.982 466.108 l 25
 400.842 536.912 l 25
 400.842 472.694 l 25
 586.437 538.558 l 25
 959.982 538.108 l 25
 957.719 561.16 l 25
EndSplineSet
MinimumDistance: x2,-1 
EndChar
StartChar: R
Encoding: 82 82
Width: 979
Flags: HW
Fore
413.912 372.992 m 25
 236.912 371.639 l 25
 40 447.381 l 25
 40 262.963 l 25
 236.912 342 l 25
 413.912 345 l 25
 413.912 372.992 l 25
653.912 357 m 17
 817.158 252 l 25
 820.158 294 l 25
 775.158 321 l 25
 769.158 429 l 25
 817.158 465 l 25
 805.217 504 l 25
 655.158 381 l 25
 653.912 357 l 17
832.92 36 m 25
 830.823 568.824 l 25
 755.081 765.736 l 25
 939.499 765.736 l 25
 860.462 568.824 l 25
 860.912 36 l 25
 832.92 36 l 25
610.333 38.2637 m 25
 608.236 571.088 l 25
 532.494 768 l 25
 716.912 768 l 25
 637.875 571.088 l 25
 638.325 38.2637 l 25
 610.333 38.2637 l 25
422.623 38.2637 m 25
 420.526 571.088 l 25
 344.784 768 l 25
 529.202 768 l 25
 450.165 571.088 l 25
 450.615 38.2637 l 25
 422.623 38.2637 l 25
EndSplineSet
EndChar
StartChar: S
Encoding: 83 83
Width: 856
Flags: HW
HStem: 375 27.9922<496 828> 748 20G<149.872 334.29>
VStem: 225.614 29.6387<40.0119 571>
DStem: 30 372 151.246 336 193.246 267 196.246 309 181.305 519 193.246 480 31.2461 396 145.246 444
Fore
30 372 m 17
 193.246 267 l 25
 196.246 309 l 25
 151.246 336 l 25
 145.246 444 l 25
 193.246 480 l 25
 181.305 519 l 25
 31.2461 396 l 25
 30 372 l 17
828 402.992 m 25
 496.912 405.676 l 25
 300 481.418 l 25
 300 297 l 25
 496.912 376.037 l 25
 828 375 l 25
 828 402.992 l 25
227.711 38.2637 m 29
 225.614 571.088 l 29
 149.872 768 l 29
 334.29 768 l 29
 255.253 571.088 l 29
 255.703 38.2637 l 29
 227.711 38.2637 l 29
EndSplineSet
MinimumDistance: x18,-1 
EndChar
StartChar: T
Encoding: 84 84
Width: 755
Flags: HW
Fore
409.439 366 m 25
 535.761 366.014 l 21
 715.439 267 l 29
 712.497 306.005 l 29
 658.562 351.083 l 29
 655.669 423.088 l 29
 706.761 486.014 l 29
 688.8 513.04 l 29
 532.761 393.014 l 29
 409.482 395.637 l 25
 409.439 366 l 25
327.193 132 m 17
 490.439 27 l 25
 493.439 69 l 25
 448.439 96 l 25
 442.439 204 l 25
 490.439 240 l 17
 478.498 279 l 9
 328.439 156 l 25
 327.193 132 l 17
40.2363 306.815 m 25
 225.734 372.951 l 25
 382.439 372 l 25
 380.143 395.05 l 25
 223.439 396 l 25
 40 468.183 l 25
 40.2363 306.815 l 25
403.439 225 m 25
 404.404 565.247 l 25
 479.857 762.271 l 25
 295.439 762 l 25
 375.144 567.087 l 25
 376.426 206.96 l 25
 403.439 225 l 25
EndSplineSet
EndChar
StartChar: Z
Encoding: 90 90
Width: 1010
Flags: W
HStem: 384.985 23.3477<224 426>
VStem: 436.704 27.0605<47 565> 630.814 27.0605<48 565.593>
DStem: 668.282 210.85 789.528 174.85 831.528 105.85 834.528 147.85 671.282 477.85 792.528 441.85 834.528 372.85 837.528 414.85 800.282 474.85 921.528 438.85 963.528 369.85 966.528 411.85 801.528 201.85 922.774 165.85 964.774 96.8496 967.774 138.85 819.587 357.85 831.528 318.85 669.528 234.85 783.528 282.85 822.587 624.85 834.528 585.85 672.528 501.85 786.528 549.85 951.587 621.85 963.528 582.85 801.528 498.85 915.528 546.85 952.833 348.85 964.774 309.85 802.774 225.85 916.774 273.85
Fore
801.528 201.85 m 21
 964.774 96.8496 l 29
 967.774 138.85 l 29
 922.774 165.85 l 29
 916.774 273.85 l 29
 964.774 309.85 l 29
 952.833 348.85 l 29
 802.774 225.85 l 29
 801.528 201.85 l 21
668.282 210.85 m 21
 831.528 105.85 l 29
 834.528 147.85 l 29
 789.528 174.85 l 29
 783.528 282.85 l 29
 831.528 318.85 l 29
 819.587 357.85 l 29
 669.528 234.85 l 29
 668.282 210.85 l 21
800.282 474.85 m 21
 963.528 369.85 l 29
 966.528 411.85 l 29
 921.528 438.85 l 29
 915.528 546.85 l 29
 963.528 582.85 l 29
 951.587 621.85 l 29
 801.528 498.85 l 29
 800.282 474.85 l 21
671.282 477.85 m 21
 834.528 372.85 l 29
 837.528 414.85 l 29
 792.528 441.85 l 29
 786.528 549.85 l 29
 834.528 585.85 l 29
 822.587 624.85 l 29
 672.528 501.85 l 29
 671.282 477.85 l 21
657.875 40.4287 m 25
 660.075 565.826 l 29
 735.528 762.85 l 25
 551.11 762.579 l 25
 630.814 567.666 l 25
 630.861 49.3887 l 25
 657.875 40.4287 l 25
463.765 39.8496 m 25
 465.965 565.247 l 25
 541.418 762.271 l 25
 357 762 l 25
 436.704 567.087 l 25
 436.751 48.8096 l 25
 463.765 39.8496 l 25
39.5283 318.85 m 25
 225.026 384.985 l 25
 429.026 385.284 l 25
 426.729 408.333 l 25
 222.731 408.034 l 25
 39.292 480.216 l 25
 39.5283 318.85 l 25
EndSplineSet
MinimumDistance: x2,-1 
EndChar
StartChar: backslash
Encoding: 92 92
Width: 940
Flags: HW
Fore
40 378 m 17
 203.246 273 l 25
 206.246 315 l 25
 161.246 342 l 25
 155.246 450 l 25
 203.246 486 l 25
 191.305 525 l 25
 41.2461 402 l 25
 40 378 l 17
740.469 162 m 25
 738.822 568.785 l 29
 663.08 765.697 l 29
 847.498 765.697 l 29
 768.461 568.785 l 29
 768.461 162 l 25
 740.469 162 l 25
902.246 153.992 m 25
 345.461 155.639 l 25
 147.461 243 l 25
 148.549 46.9629 l 25
 345.461 126 l 25
 902.246 126 l 25
 902.246 153.992 l 25
541.432 161.303 m 25
 539.785 568.088 l 29
 464.043 765 l 29
 648.461 765 l 29
 569.424 568.088 l 29
 569.424 161.303 l 25
 541.432 161.303 l 25
355.732 162 m 25
 354.086 568.785 l 29
 278.344 765.697 l 29
 462.762 765.697 l 29
 383.725 568.785 l 29
 383.725 162 l 25
 355.732 162 l 25
EndSplineSet
EndChar
StartChar: asciicircum
Encoding: 94 94
Width: 894
Flags: W
DStem: 537.354 432.645 553.443 449.308 649.763 348.302 665.852 364.966 848.082 386.127 854.852 358.966 250.182 253.84 257.349 225.08
Fore
479.896 318.392 m 25
 380.852 367.966 l 25
 176.167 419.104 l 25
 282.121 570.047 l 25
 397.88 392.225 l 25
 503.852 325.966 l 25
 479.896 318.392 l 25
649.763 348.302 m 25
 537.354 432.645 l 25
 348.664 489.698 l 25
 388.539 540.033 l 25
 198.345 602.481 l 25
 305.705 738 l 25
 408.989 565.847 l 25
 448.866 616.183 l 25
 553.443 449.308 l 25
 665.852 364.966 l 25
 649.763 348.302 l 25
854.852 358.966 m 25
 257.349 225.08 l 25
 84.5977 103.968 l 25
 40 282.912 l 25
 250.182 253.84 l 25
 848.082 386.127 l 25
 854.852 358.966 l 25
EndSplineSet
MinimumDistance: x16,-1 
EndChar
StartChar: underscore
Encoding: 95 95
Width: 932
Flags: HW
Fore
706.962 394.077 m 21
 886.641 295.062 l 29
 883.697 334.068 l 29
 829.764 379.146 l 29
 826.869 451.151 l 29
 877.962 514.077 l 29
 860 541.103 l 29
 703.962 421.077 l 29
 223.796 421.673 l 29
 27 501 l 29
 26.7295 316.582 l 29
 223.753 392.036 l 29
 706.962 394.077 l 21
EndSplineSet
EndChar
StartChar: a
Encoding: 97 97
Width: 492
Flags: W
HStem: 748 20G<62.8721 247.29> 750.264 20G<262.108 435>
VStem: 138.614 29.6387<39 571> 339.948 22.6016<37 396>
Fore
339.948 38.2637 m 29
 339.498 399.072 l 29
 267.049 582.404 l 29
 331.265 582.404 l 29
 262.108 770.264 l 29
 435 770.264 l 29
 364.196 582.404 l 29
 428.414 582.404 l 29
 362.55 396.81 l 29
 363 36 l 29
 339.948 38.2637 l 29
140.711 38.2637 m 25
 138.614 571.088 l 25
 62.8721 768 l 25
 247.29 768 l 25
 168.253 571.088 l 25
 168.703 38.2637 l 25
 140.711 38.2637 l 25
EndSplineSet
MinimumDistance: x8,-1 
EndChar
StartChar: b
Encoding: 98 98
Width: 984
Flags: W
HStem: 174 29.6387<432 811> 374.884 23.0518<605 811> 551.258 31.7852<434 815> 760.697 20G<739.582 924>
VStem: 815.324 29.639<27 203 204 396 398 552>
Fore
420.683 463.8 m 25
 606.278 397.936 l 25
 813.932 398.678 l 25
 811.668 375.626 l 25
 604.015 374.884 l 25
 420.683 302.435 l 25
 420.683 463.8 l 25
816 552 m 25
 424.088 551.258 l 25
 227.176 475.516 l 25
 227.176 659.934 l 25
 435.656 583.043 l 25
 815.324 583.785 l 25
 816 552 l 25
816.971 27 m 25
 815.324 583.785 l 25
 739.582 780.697 l 25
 924 780.697 l 25
 844.963 583.785 l 25
 844.963 27 l 25
 816.971 27 l 25
811.668 176.389 m 25
 432 174 l 25
 235.088 98.2578 l 25
 235.088 282.676 l 25
 432 203.639 l 25
 811.668 204.381 l 25
 811.668 176.389 l 25
EndSplineSet
MinimumDistance: x16,-1 
EndChar
StartChar: d
Encoding: 100 100
Width: 974
Flags: W
HStem: 174.742 29.639<244 795> 176.389 27.992<463.609 801.668> 366 27<423 606> 552 29.639<236 793> 553.646 27.993<455.49 793.756> 760.697 20G<729.582 914>
VStem: 805.324 29.639<27 393 394 552 553 583>
DStem: 606 366 726 333 768 264 771 306 756.059 516 768 477 606 393 720 441
Fore
606 393 m 25
 415.513 394.441 l 25
 229.918 460.306 l 25
 229.918 396.088 l 25
 42.0586 466.892 l 25
 42.0586 294 l 25
 229.918 363.156 l 25
 229.918 298.94 l 25
 423 369 l 25
 606 366 l 17
 768 264 l 25
 771 306 l 25
 726 333 l 25
 720 441 l 25
 768 477 l 25
 756.059 516 l 25
 606 393 l 25
793.756 553.646 m 25
 236.971 552 l 25
 40.0586 476.258 l 25
 40.0586 660.676 l 25
 236.971 581.639 l 25
 793.756 581.639 l 25
 793.756 553.646 l 25
806.971 27 m 25
 805.324 583.785 l 25
 729.582 780.697 l 25
 914 780.697 l 25
 834.963 583.785 l 25
 834.963 27 l 25
 806.971 27 l 25
801.668 176.389 m 25
 244.883 174.742 l 25
 47.9707 99 l 25
 47.9707 283.418 l 25
 244.883 204.381 l 25
 801.668 204.381 l 25
 801.668 176.389 l 25
EndSplineSet
MinimumDistance: x26,-1 
EndChar
StartChar: e
Encoding: 101 101
Width: 780
Flags: W
HStem: 273 23.0518<217 433> 441 23.0518<214 429> 756.961 20G<358.204 542.622> 759.225 20G<557.44 730.332>
VStem: 433.946 29.6387<24 278 296 580> 634.83 23.0518<22 405>
Fore
33 361.916 m 25
 218.595 296.052 l 25
 435.145 296.052 l 25
 432.882 273 l 25
 216.332 273 l 25
 33 200.551 l 25
 33 361.916 l 25
30 529.916 m 25
 215.595 464.052 l 25
 432.145 464.052 l 25
 429.882 441 l 25
 213.332 441 l 25
 30 368.551 l 25
 30 529.916 l 25
634.83 23.2637 m 25
 634.83 408.033 l 25
 562.381 591.365 l 25
 626.597 591.365 l 25
 557.44 779.225 l 25
 730.332 779.225 l 25
 659.528 591.365 l 25
 723.746 591.365 l 25
 657.882 405.771 l 25
 657.882 21 l 25
 634.83 23.2637 l 25
435.593 23.2637 m 29
 433.946 580.049 l 29
 358.204 776.961 l 29
 542.622 776.961 l 29
 463.585 580.049 l 29
 463.585 23.2637 l 29
 435.593 23.2637 l 29
EndSplineSet
MinimumDistance: x20,-1 
EndChar
StartChar: g
Encoding: 103 103
Width: 960
Flags: W
HStem: 285.25 27.014<244 716> 537.26 36.003<242 430.134 539.976 716.672>
VStem: 368.695 23.049<134 287 315 337> 536.699 23.049<137 285 313 339>
Fore
725.466 285.25 m 9
 244.351 286.698 l 25
 47.3271 211.245 l 25
 47.5977 395.663 l 25
 242.511 315.959 l 25
 716.506 312.264 l 25
 878.686 435.026 l 25
 896.646 408 l 25
 845.554 345.074 l 25
 848.449 273.07 l 25
 902.383 227.991 l 25
 905.325 188.986 l 25
 725.466 285.25 l 9
458.179 522.643 m 25
 392.043 337.145 l 25
 391.744 133.145 l 25
 368.695 135.442 l 25
 368.994 339.44 l 25
 296.813 522.879 l 25
 458.179 522.643 l 25
626.183 525.396 m 25
 560.047 339.898 l 25
 559.748 135.898 l 25
 536.699 138.195 l 25
 536.999 342.194 l 25
 464.818 525.633 l 25
 626.183 525.396 l 25
719.807 537.26 m 17
 905.679 449.986 l 25
 902.735 488.991 l 25
 848.802 534.069 l 25
 845.907 606.074 l 25
 897 669 l 25
 879.039 696.026 l 25
 716.859 573.263 l 25
 242.834 576.597 l 25
 46.0381 655.923 l 25
 45.7676 471.505 l 25
 242.791 546.959 l 25
 719.807 537.26 l 17
EndSplineSet
MinimumDistance: x20,-1 
EndChar
StartChar: h
Encoding: 104 104
Width: 569
Flags: W
HStem: 762.264 20G<259.373 432.265>
VStem: 139.349 23.051<28 212 214 412> 336.763 23.051<25 27 28 208 238 408>
DStem: 139.349 413.668 165.265 246 139.349 28.8984 162.265 213 336.763 411.072 360.265 243 336.763 26.3027 357.265 210
Fore
357.265 210 m 21
 510.265 120 l 29
 519 158.991 l 29
 465.066 204.069 l 29
 462.172 276.074 l 29
 513.265 339 l 29
 495.304 366.026 l 29
 360.265 243 l 29
 357.265 210 l 21
162.265 213 m 17
 315.265 123 l 25
 324 161.991 l 25
 270.066 207.069 l 25
 267.172 279.074 l 25
 318.265 342 l 25
 300.304 369.026 l 25
 165.265 246 l 25
 162.265 213 l 17
139.349 28.8984 m 25
 139.349 413.668 l 25
 66.8994 597 l 25
 131.115 597 l 25
 61.959 784.859 l 25
 234.851 784.859 l 25
 164.047 597 l 25
 228.265 597 l 25
 162.4 411.405 l 25
 162.4 26.6348 l 25
 139.349 28.8984 l 25
336.763 26.3027 m 25
 336.763 411.072 l 25
 264.313 594.404 l 25
 328.529 594.404 l 25
 259.373 782.264 l 25
 432.265 782.264 l 25
 361.461 594.404 l 25
 425.679 594.404 l 25
 359.814 408.81 l 25
 359.814 24.0391 l 25
 336.763 26.3027 l 25
EndSplineSet
MinimumDistance: x7,-1 
EndChar
StartChar: i
Encoding: 105 105
Width: 848
Flags: W
HStem: 193.037 27.9922<240 796 460.531 798.697> 376.487 23.0518<415 799> 553.536 23.0518<416 799>
Fore
799.799 576.588 m 25
 415.029 576.588 l 25
 231.697 649.037 l 25
 231.697 584.821 l 25
 43.8379 653.978 l 25
 43.8379 481.086 l 25
 231.697 551.89 l 25
 231.697 487.672 l 25
 417.292 553.536 l 25
 802.062 553.536 l 25
 799.799 576.588 l 25
799.395 399.539 m 25
 414.625 399.539 l 25
 231.293 471.988 l 25
 231.293 407.772 l 25
 43.4336 476.929 l 25
 43.4336 304.037 l 25
 231.293 374.841 l 25
 231.293 310.623 l 25
 416.888 376.487 l 25
 801.658 376.487 l 25
 799.395 399.539 l 25
798.697 221.029 m 25
 241.912 222.676 l 25
 45 298.418 l 25
 45 114 l 25
 241.912 193.037 l 25
 798.697 193.037 l 25
 798.697 221.029 l 25
EndSplineSet
EndChar
StartChar: j
Encoding: 106 106
Width: 1161
Flags: HW
Fore
1005.5 27.0391 m 29
 1005.5 411.808 l 29
 933.049 595.14 l 29
 997.265 595.14 l 29
 928.108 783 l 29
 1101 783 l 29
 1030.2 595.14 l 29
 1094.41 595.14 l 29
 1041 411.771 l 29
 1041 27 l 29
 1005.5 27.0391 l 29
806.261 27.0391 m 29
 804.614 583.824 l 29
 728.872 780.736 l 29
 913.29 780.736 l 29
 846 577.785 l 29
 846 21 l 29
 806.261 27.0391 l 29
799.799 576.588 m 29
 415.028 576.588 l 29
 231.696 649.037 l 29
 231.696 584.821 l 29
 43.8379 653.979 l 29
 43.8379 481.086 l 29
 231.696 551.891 l 29
 231.696 487.672 l 29
 417.292 553.536 l 29
 802.062 553.536 l 29
 799.799 576.588 l 29
799.395 399.539 m 29
 414.625 399.539 l 29
 231.293 471.988 l 29
 231.293 407.772 l 29
 43.4336 476.929 l 29
 43.4336 304.037 l 29
 231.293 374.841 l 29
 231.293 310.623 l 29
 416.888 376.487 l 29
 801.658 376.487 l 29
 799.395 399.539 l 29
798.697 221.029 m 29
 241.912 222.676 l 29
 45 298.418 l 29
 45 114 l 29
 241.912 193.037 l 29
 798.697 193.037 l 29
 798.697 221.029 l 29
EndSplineSet
EndChar
StartChar: k
Encoding: 107 107
Width: 1078
Flags: HW
HStem: 171 23.0518<214 591> 351 21<858 1041> 369 24<225 408> 697 20G<514.246 698.664>
VStem: 589.988 29.6387<-27 171 194 393 394 520> 822 30<191 193 194 345> 825 30<-40 162>
DStem: 408 369 529.246 333 571.246 264 574.246 306 559.305 516 571.246 477 409.246 393 523.246 441 823.246 516 858 519 819 372 858 372
Fore
1045.25 168 m 25
 1042.95 191.049 l 17
 852 192 l 25
 852 351 l 25
 1041 351 l 25
 1044 372 l 25
 858 372 l 25
 858 519 l 25
 941.496 712.088 l 25
 744 711 l 25
 823.246 516 l 17
 819 372 l 25
 654 432 l 25
 654 282 l 25
 822 345 l 25
 822 186 l 25
 654 258 l 25
 654 108 l 25
 825 162 l 25
 825 -39 l 25
 855 -42 l 17
 855 162 l 25
 1045.25 168 l 25
30.1445 259.916 m 25
 215.739 194.052 l 25
 587.264 194.052 l 25
 585 171 l 25
 213.477 171 l 25
 30.1445 98.5508 l 25
 30.1445 259.916 l 25
591.635 -36.6973 m 25
 589.988 520.088 l 25
 514.246 717 l 25
 698.664 717 l 25
 619.627 520.088 l 25
 619.627 -36.6973 l 25
 591.635 -36.6973 l 25
33.1641 298.94 m 25
 225 372 l 25
 408 369 l 17
 571.246 264 l 25
 574.246 306 l 25
 529.246 333 l 25
 523.246 441 l 25
 571.246 477 l 25
 559.305 516 l 25
 409.246 393 l 25
 218.759 394.441 l 25
 33.1641 460.306 l 25
 33.1641 298.94 l 25
EndSplineSet
MinimumDistance: x6,-1 
EndChar
StartChar: l
Encoding: 108 108
Width: 931
Flags: HW
Fore
40.2363 171.634 m 25
 225.734 237.77 l 25
 366.734 237.77 l 25
 364.437 260.818 l 25
 223.439 260.817 l 25
 40 333 l 25
 40.2363 171.634 l 25
43.2363 336.634 m 25
 228.734 402.77 l 25
 369.734 402.77 l 25
 367.437 425.818 l 25
 226.439 425.817 l 25
 43 498 l 25
 43.2363 336.634 l 25
298.236 27.6338 m 25
 483.734 93.7695 l 25
 763.236 93.6338 l 25
 760.938 116.683 l 25
 481.439 116.817 l 25
 298 189 l 25
 298.236 27.6338 l 25
373.236 510.634 m 25
 558.734 576.77 l 25
 762.734 577.068 l 25
 760.437 600.117 l 25
 556.439 599.818 l 25
 373 672 l 25
 373.236 510.634 l 25
795 36 m 29
 795.547 585.976 l 25
 871 783 l 25
 686.582 782.729 l 25
 766.286 587.816 l 25
 765 36 l 29
 795 36 l 29
373.99 339.004 m 25
 559.488 405.14 l 25
 763.488 405.438 l 25
 761.19 428.487 l 25
 557.193 428.188 l 25
 373.754 500.37 l 25
 373.99 339.004 l 25
371.236 171 m 25
 556.734 237.136 l 25
 760.734 237.435 l 25
 758.438 260.483 l 25
 554.438 260.184 l 25
 371 332.364 l 25
 371.236 171 l 25
EndSplineSet
EndChar
StartChar: n
Encoding: 110 110
Width: 926
Flags: W
HStem: 369 24<221 404> 757 20G<682.418 866.836>
VStem: 758.16 29.6387<38 580>
DStem: 404.836 369 526.082 333 568.082 264 571.082 306 556.141 516 568.082 477 406.082 393 520.082 441 565.59 495 686.836 459 728.836 390 731.836 432 716.895 642 728.836 603 566.836 519 680.836 567
Fore
759.807 23.3027 m 29
 758.16 580.088 l 29
 682.418 777 l 29
 866.836 777 l 29
 787.799 580.088 l 29
 787.799 23.3027 l 29
 759.807 23.3027 l 29
565.59 495 m 17
 728.836 390 l 25
 731.836 432 l 25
 686.836 459 l 25
 680.836 567 l 25
 728.836 603 l 25
 716.895 642 l 25
 566.836 519 l 25
 565.59 495 l 17
30 298.94 m 25
 221.836 372 l 25
 404.836 369 l 17
 568.082 264 l 25
 571.082 306 l 25
 526.082 333 l 25
 520.082 441 l 25
 568.082 477 l 25
 556.141 516 l 25
 406.082 393 l 25
 215.595 394.441 l 25
 30 460.306 l 25
 30 298.94 l 25
EndSplineSet
MinimumDistance: x4,-1 
EndChar
StartChar: p
Encoding: 112 112
Width: 452
Flags: W
HStem: 227.701 23.0479<212 236 264 414> 395.705 23.0488<214 236 265 418>
VStem: 236.939 27.0605<25 227 27.1856 543>
Fore
264 18 m 29
 266.2 543.397 l 29
 341.653 740.421 l 29
 157.235 740.15 l 29
 236.939 545.237 l 29
 236.986 26.96 l 29
 264 18 l 29
30.2559 329.569 m 29
 215.754 395.705 l 29
 419.754 396.004 l 29
 417.456 419.053 l 29
 213.459 418.754 l 29
 30.0195 490.936 l 29
 30.2559 329.569 l 29
27.502 161.565 m 29
 213 227.701 l 29
 417 228 l 29
 414.703 251.049 l 29
 210.704 250.749 l 29
 27.2656 322.93 l 29
 27.502 161.565 l 29
EndSplineSet
MinimumDistance: x0,-1 
EndChar
StartChar: r
Encoding: 114 114
Width: 829
Flags: W
HStem: 33 27.9922<392.94 792.059 395 465 495 783> 135.499 23.0518<215 465> 285 23.0518<212 214 215 465> 441 23.501<215 465> 609 23.501<217 465>
VStem: 465.059 29.9414<59 135 158 285 308 440 464 609> 654.42 29.6387<63 440 441 627>
DStem: 465.361 631.785 476.265 632.052 465.059 57 474 609 465.361 631.785 473.265 464.052 465.059 57 471 441 465.361 631.785 479.323 308.052 465.059 57 477.059 285 465.361 631.785 473.729 158.551 465.059 57 471.464 135.499
Fore
792.059 60.9922 m 29
 396.059 60 l 29
 215.728 132.695 l 29
 216.059 -9 l 29
 393.059 33 l 29
 792.059 33 l 29
 792.059 60.9922 l 29
656.066 63 m 29
 654.42 627 l 29
 574.641 795.992 l 29
 759.059 795.992 l 29
 684.059 627 l 29
 684.059 63 l 29
 656.066 63 l 29
30.4639 224.864 m 29
 216.059 159 l 29
 473.729 158.551 l 29
 471.464 135.499 l 29
 213.796 135.948 l 29
 30.5225 93.499 l 29
 30.4639 224.864 l 29
30 362.365 m 29
 213.059 309 l 29
 479.323 308.052 l 29
 477.059 285 l 29
 210.059 285 l 29
 30.0586 240 l 29
 30 362.365 l 29
30 530.365 m 29
 215.595 464.501 l 29
 473.265 464.052 l 29
 471 441 l 29
 213.332 441.449 l 29
 30 369 l 29
 30 530.365 l 29
33 698.365 m 29
 218.595 632.501 l 29
 476.265 632.052 l 29
 474 609 l 29
 216.332 609.449 l 29
 33 537 l 29
 33 698.365 l 29
465.059 57 m 29
 465.361 631.785 l 29
 385.582 800.777 l 29
 570 800.777 l 29
 495 631.785 l 29
 495.059 60 l 29
 465.059 57 l 29
EndSplineSet
MinimumDistance: x10,-1 
EndChar
StartChar: s
Encoding: 115 115
Width: 1072
Flags: HW
HStem: 195.25 26.75<228 709.231> 456.959 29.041<226 455 456 478 479 707> 745 20G<837.582 1022>
VStem: 455.951 23.3477<46 195 225 249> 913.324 29.6387<54 224 55.4248 568>
DStem: 913.324 568.088 942.963 568.088 916.008 51 945 54
Fore
475.583 228 m 25
 558 426 l 25
 373.583 426 l 25
 445.945 228 l 25
 475.583 228 l 25
449.531 198.032 m 25
 450.948 26.2646 l 25
 474 24 l 25
 472.583 195.771 l 25
 449.531 198.032 l 25
916.008 51 m 25
 913.324 568.088 l 25
 837.582 765 l 25
 1022 765 l 25
 942.963 568.088 l 25
 945 54 l 25
 916.008 51 l 25
709.466 195.25 m 9
 228.351 196.698 l 25
 31.3271 121.245 l 25
 31.5977 305.663 l 25
 226.511 225.959 l 25
 713 222 l 25
 862.686 345.026 l 25
 880.646 318 l 25
 829.554 255.074 l 25
 832.449 183.07 l 25
 886.383 137.991 l 25
 889.325 98.9863 l 25
 709.466 195.25 l 9
710 459 m 17
 889.679 359.986 l 25
 886.735 398.991 l 25
 832.802 444.069 l 25
 829.907 516.074 l 25
 881 579 l 25
 863.039 606.026 l 25
 707 486 l 25
 226.834 486.597 l 25
 30.0381 565.923 l 25
 29.7676 381.505 l 25
 226.791 456.959 l 25
 710 459 l 17
EndSplineSet
MinimumDistance: x11,-1 x10,11 
EndChar
StartChar: t
Encoding: 116 116
Width: 1072
Flags: HW
HStem: 195.25 26.75<228 709.231> 456.959 29.041<226 377 230.31 708> 745 20G<837.582 1022>
VStem: 377.882 23.0488<47 197 225 249> 545.447 23.3477<47 195 223 249> 913.324 29.6387<54 224 55.4248 568>
DStem: 913.324 568.088 942.963 568.088 916.008 51 945 54
Fore
589.583 231 m 29
 672 429 l 29
 487.583 429 l 29
 559.945 231 l 29
 589.583 231 l 29
563.531 201.032 m 29
 564.948 29.2646 l 29
 588 27 l 29
 586.583 198.771 l 29
 563.531 201.032 l 29
399 231 m 25
 481.417 429 l 25
 297 429 l 25
 369.362 231 l 25
 399 231 l 25
372.948 201.032 m 25
 374.365 29.2646 l 25
 397.417 27 l 25
 396 198.771 l 25
 372.948 201.032 l 25
916.008 51 m 25
 913.324 568.088 l 25
 837.582 765 l 25
 1022 765 l 25
 942.963 568.088 l 25
 945 54 l 25
 916.008 51 l 25
709.466 195.25 m 9
 228.351 196.698 l 25
 31.3271 121.245 l 25
 31.5977 305.663 l 25
 226.511 225.959 l 25
 713 222 l 25
 862.686 345.026 l 25
 880.646 318 l 25
 829.554 255.074 l 25
 832.449 183.07 l 25
 886.383 137.991 l 25
 889.325 98.9863 l 25
 709.466 195.25 l 9
710 459 m 17
 889.679 359.986 l 25
 886.735 398.991 l 25
 832.802 444.069 l 25
 829.907 516.074 l 25
 881 579 l 25
 863.039 606.026 l 25
 707 486 l 25
 226.834 486.597 l 25
 30.0381 565.923 l 25
 29.7676 381.505 l 25
 226.791 456.959 l 25
 710 459 l 17
EndSplineSet
MinimumDistance: x19,-1 x18,19 
EndChar
StartChar: u
Encoding: 117 117
Width: 445
Flags: W
DStem: 387 675 402 636 30 423 249 525
Fore
28.7539 399 m 21
 369 156 l 29
 390 186 l 29
 249 306 l 29
 249 525 l 29
 402 636 l 29
 387 675 l 29
 30 423 l 29
 28.7539 399 l 21
EndSplineSet
MinimumDistance: x5,-1 
EndChar
StartChar: w
Encoding: 119 119
Width: 869
Flags: HW
Fore
63.2461 210 m 21
 226.492 105 l 29
 229.492 147 l 29
 184.492 174 l 29
 178.492 282 l 29
 226.492 318 l 29
 214.551 357 l 29
 64.4922 234 l 29
 63.2461 210 l 21
50 480 m 21
 213.246 375 l 29
 216.246 417 l 29
 171.246 444 l 29
 165.246 552 l 29
 213.246 588 l 29
 201.305 627 l 29
 51.2461 504 l 29
 50 480 l 21
834.246 357.992 m 29
 500.158 360.676 l 29
 303.246 436.418 l 29
 303.246 252 l 29
 500.158 331.037 l 29
 834.246 330 l 29
 834.246 357.992 l 29
245.507 26.3027 m 29
 243.86 583.088 l 29
 168.118 780 l 29
 352.536 780 l 29
 273.499 583.088 l 29
 273.499 26.3027 l 29
 245.507 26.3027 l 29
EndSplineSet
EndChar
StartChar: z
Encoding: 122 122
Width: 481
Flags: W
HStem: 762.264 20G<60 232.892> 763 20G<249 421.892>
VStem: 137.84 22.6025<37 408> 326.84 22.6016<37 410>
Fore
326.84 38.2637 m 29
 326.39 411.808 l 29
 253.94 595.14 l 29
 318.156 595.14 l 29
 249 783 l 29
 421.892 783 l 29
 351.088 595.14 l 29
 415.306 595.14 l 29
 349.441 409.546 l 29
 349.892 36 l 29
 326.84 38.2637 l 29
137.84 37.5273 m 29
 137.39 411.072 l 29
 64.9414 594.404 l 29
 129.157 594.404 l 29
 60 782.264 l 29
 232.892 782.264 l 29
 162.088 594.404 l 29
 226.306 594.404 l 29
 160.442 408.81 l 29
 160.892 35.2637 l 29
 137.84 37.5273 l 29
EndSplineSet
MinimumDistance: x8,-1 
EndChar
StartChar: bar
Encoding: 124 124
Width: 627
Flags: HW
Fore
282.927 214.455 m 21
 515.995 48 l 29
 530.38 68.5498 l 29
 433.795 150.75 l 29
 433.795 300.765 l 29
 538.6 376.8 l 29
 528.325 403.515 l 29
 283.78 230.895 l 29
 282.927 214.455 l 21
291.927 571.455 m 21
 524.995 405 l 29
 539.38 425.55 l 29
 442.795 507.75 l 29
 442.795 657.765 l 29
 547.6 733.8 l 29
 537.325 760.515 l 29
 292.78 587.895 l 29
 291.927 571.455 l 21
40 391.2 m 21
 273.068 224.745 l 29
 287.453 245.295 l 29
 190.868 327.495 l 29
 190.868 477.51 l 29
 295.673 553.545 l 29
 285.398 580.26 l 29
 40.8535 407.64 l 29
 40 391.2 l 21
EndSplineSet
EndChar
StartChar: asciitilde
Encoding: 126 126
Width: 1018
Flags: HW
Fore
252.008 117 m 25
 250.742 535.088 l 17
 175 732 l 9
 359.418 732 l 25
 280.381 535.088 l 25
 280 117 l 25
 252.008 117 l 25
653.912 466.668 m 29
 503.912 468.676 l 29
 307 544.418 l 29
 307 360 l 29
 503.912 439.037 l 29
 653.912 438.676 l 29
 653.912 466.668 l 29
934 108.992 m 25
 236.912 108.676 l 25
 40 184.418 l 25
 39 18 l 25
 236.912 79.0371 l 25
 934 81 l 25
 934 108.992 l 25
858.008 117 m 25
 858.324 571.088 l 25
 782.582 768 l 25
 967 768 l 25
 887.963 571.088 l 25
 886 117 l 25
 858.008 117 l 25
664.298 117 m 25
 664.614 571.088 l 25
 588.872 768 l 25
 773.29 768 l 25
 694.253 571.088 l 25
 692.29 117 l 25
 664.298 117 l 25
EndSplineSet
EndChar
StartChar: Igrave
Encoding: 204 204
Width: 932
Flags: HW
Fore
717.196 393 m 21
 880.442 288 l 29
 883.442 330 l 29
 838.442 357 l 29
 832.442 465 l 29
 880.442 501 l 29
 868.501 540 l 29
 718.442 417 l 29
 717.196 393 l 21
283.442 387 m 17
 446.688 282 l 25
 449.688 324 l 25
 404.688 351 l 25
 398.688 459 l 25
 446.688 495 l 25
 434.747 534 l 25
 284.688 411 l 25
 283.442 387 l 17
678.45 156 m 25
 678.361 570 l 25
 602.619 766.912 l 25
 787.037 766.912 l 25
 708 570 l 25
 706.442 156 l 25
 678.45 156 l 25
246.45 159 m 25
 246.361 573 l 25
 170.619 769.912 l 25
 355.037 769.912 l 25
 276 573 l 25
 274.442 159 l 25
 246.45 159 l 25
720.141 120.264 m 9
 239.025 121.712 l 25
 42.002 46.2588 l 25
 42.2725 230.677 l 25
 237.186 150.973 l 25
 723.675 147.014 l 25
 873.36 270.04 l 25
 891.321 243.014 l 25
 840.229 180.088 l 25
 843.124 108.084 l 25
 897.058 63.0049 l 25
 900 24 l 25
 720.141 120.264 l 9
EndSplineSet
EndChar
StartChar: Uacute
Encoding: 218 218
Width: 928
Flags: HW
Fore
559.593 401.743 m 21
 739.271 302.729 l 29
 736.328 341.734 l 29
 682.395 386.812 l 29
 679.5 458.817 l 29
 730.593 521.743 l 29
 712.631 548.769 l 29
 556.593 428.743 l 29
 237.067 430.401 l 29
 40.2715 509.729 l 29
 40.001 325.311 l 29
 237.024 400.765 l 29
 559.593 401.743 l 21
762.421 204.964 m 29
 237.024 202.764 l 29
 40 127.311 l 29
 40.2715 311.729 l 29
 235.184 232.024 l 29
 753.461 231.978 l 29
 762.421 204.964 l 29
795.036 39.5781 m 29
 797.236 564.976 l 29
 872.689 762 l 29
 688.271 761.729 l 29
 767.976 566.815 l 29
 768.022 48.5381 l 29
 795.036 39.5781 l 29
EndSplineSet
EndChar
StartChar: Ucircumflex
Encoding: 219 219
Width: 1126
Flags: HW
HStem: 267.264 26.75<422 903> 528.973 29.041<421 901.249>
VStem: 644.128 23.3477<109 267 297 312>
DStem: 40 399 161.246 363 203.246 294 206.246 336 191.305 546 203.246 507 41.2461 423 155.246 471
Fore
666 300 m 25
 739.417 465 l 25
 555 465 l 25
 636.362 300 l 25
 666 300 l 25
639.948 270.032 m 25
 639.948 44.2646 l 29
 663 42 l 29
 663 267.771 l 25
 639.948 270.032 l 25
40 399 m 17
 203.246 294 l 25
 206.246 336 l 25
 161.246 363 l 25
 155.246 471 l 25
 203.246 507 l 25
 191.305 546 l 25
 41.2461 423 l 25
 40 399 l 17
903.944 267.264 m 9
 422.829 268.712 l 25
 225.806 193.259 l 25
 226.076 377.677 l 25
 420.989 297.973 l 25
 907.479 294.014 l 25
 1057.16 417.04 l 25
 1075.12 390.014 l 25
 1024.03 327.088 l 25
 1026.93 255.084 l 25
 1080.86 210.005 l 25
 1083.8 171 l 25
 903.944 267.264 l 9
904.479 531.014 m 17
 1084.16 432 l 25
 1081.21 471.005 l 25
 1027.28 516.083 l 25
 1024.39 588.088 l 25
 1075.48 651.014 l 25
 1057.52 678.04 l 25
 901.479 558.014 l 25
 421.312 558.61 l 25
 224.517 637.937 l 25
 224.246 453.519 l 25
 421.27 528.973 l 25
 904.479 531.014 l 17
EndSplineSet
EndChar
StartChar: Udieresis
Encoding: 220 220
Width: 1096
Flags: HW
Fore
736.754 387 m 21
 900 282 l 29
 903 324 l 29
 858 351 l 29
 852 459 l 29
 900 495 l 29
 888.059 534 l 29
 738 411 l 29
 736.754 387 l 21
700.912 411.25 m 29
 550.912 413.258 l 29
 354 489 l 29
 354 304.582 l 29
 550.912 383.619 l 29
 700.912 383.258 l 29
 700.912 411.25 l 29
927.209 43.9121 m 29
 927.361 552 l 29
 851.619 748.912 l 29
 1036.04 748.912 l 29
 957 552 l 29
 955.201 43.9121 l 29
 927.209 43.9121 l 29
705 48 m 29
 705.152 556.088 l 29
 629.41 753 l 29
 813.828 753 l 29
 734.791 556.088 l 29
 732.992 48 l 29
 705 48 l 29
162 249 m 21
 325.246 144 l 29
 328.246 186 l 29
 283.246 213 l 29
 277.246 321 l 29
 325.246 357 l 29
 313.305 396 l 29
 163.246 273 l 29
 162 249 l 21
28.7539 258 m 21
 192 153 l 29
 195 195 l 29
 150 222 l 29
 144 330 l 29
 192 366 l 29
 180.059 405 l 29
 30 282 l 29
 28.7539 258 l 21
160.754 522 m 21
 324 417 l 29
 327 459 l 29
 282 486 l 29
 276 594 l 29
 324 630 l 29
 312.059 669 l 29
 162 546 l 29
 160.754 522 l 21
31.7539 525 m 21
 195 420 l 29
 198 462 l 29
 153 489 l 29
 147 597 l 29
 195 633 l 29
 183.059 672 l 29
 33 549 l 29
 31.7539 525 l 21
EndSplineSet
EndChar
StartChar: agrave
Encoding: 224 224
Width: 747
Flags: W
HStem: 348 23.5498<432 610> 760.697 20G<532.883 717.301>
VStem: 608.625 29.6387<27 348 371 583>
Fore
614.264 348 m 29
 431.191 348.498 l 29
 247.859 276.049 l 29
 247.859 340.265 l 29
 60 271.108 l 29
 60 444 l 29
 247.859 373.196 l 29
 247.859 437.414 l 29
 433.454 371.55 l 29
 616.527 371.052 l 29
 614.264 348 l 29
610.271 27 m 29
 608.625 583.785 l 29
 532.883 780.697 l 29
 717.301 780.697 l 29
 638.264 583.785 l 29
 638.264 27 l 29
 610.271 27 l 29
EndSplineSet
MinimumDistance: x14,-1 
EndChar
StartChar: aacute
Encoding: 225 225
Width: 813
Flags: W
HStem: 384 27.9922<228 785 447.834 786>
Fore
786 411.992 m 25
 229.215 413.639 l 25
 32.3027 489.381 l 25
 32.3027 304.963 l 25
 229.215 384 l 25
 786 384 l 25
 786 411.992 l 25
EndSplineSet
EndChar
StartChar: acircumflex
Encoding: 226 226
Width: 922
Flags: W
HStem: 51 23.501<502 755> 201 23.0518<214 345> 222 23.0518<532 755> 390 23.0518<532 755> 414 23.0518<214 345> 558 23.501<505 753> 757.697 20G<677.914 862.332>
VStem: 753.656 29.6387<24 51 74 222 245 390 413 558>
Fore
30 289.916 m 25
 215.595 224.052 l 25
 347.597 224.052 l 25
 345.332 201 l 25
 213.332 201 l 25
 30 128.551 l 25
 30 289.916 l 25
30.3691 492 m 25
 215.632 437.052 l 25
 347.634 437.052 l 25
 345.369 414 l 25
 213.369 414 l 25
 30.0371 341.551 l 25
 30.3691 492 l 25
318.295 140.365 m 25
 503.89 74.501 l 25
 761.56 74.0518 l 25
 759.295 51 l 25
 501.627 51.4492 l 25
 318.295 -21 l 25
 318.295 140.365 l 25
348 310.916 m 25
 533.595 245.052 l 25
 761.56 245.052 l 25
 759.295 222 l 25
 531.332 222 l 25
 348 149.551 l 25
 348 310.916 l 25
348.332 468 m 25
 533.595 413.052 l 25
 761.56 413.052 l 25
 759.295 390 l 25
 531.332 390 l 25
 348 317.551 l 25
 348.332 468 l 25
321.295 647.365 m 25
 506.89 581.501 l 25
 764.56 581.052 l 25
 762.295 558 l 25
 504.627 558.449 l 25
 321.295 486 l 25
 321.295 647.365 l 25
755.303 24 m 25
 753.656 580.785 l 25
 677.914 777.697 l 25
 862.332 777.697 l 25
 783.295 580.785 l 25
 783.295 24 l 25
 755.303 24 l 25
EndSplineSet
MinimumDistance: x40,-1 
EndChar
StartChar: adieresis
Encoding: 228 228
Width: 867
Flags: HW
Fore
481.794 360.013 m 21
 645.04 255.013 l 29
 648.04 297.013 l 29
 603.04 324.013 l 29
 597.04 432.013 l 29
 645.04 468.013 l 29
 633.099 507.013 l 29
 483.04 384.013 l 29
 481.794 360.013 l 21
807.04 102.013 m 29
 400.793 101.048 l 29
 203.769 25.5947 l 29
 204.04 210.013 l 29
 398.952 130.309 l 29
 798.08 129.025 l 29
 807.04 102.013 l 29
702.04 138.013 m 29
 703.005 565.26 l 29
 778.458 762.284 l 29
 594.04 762.013 l 29
 673.744 567.101 l 29
 675.027 146.973 l 29
 702.04 138.013 l 29
459.04 129.013 m 29
 459.478 570.409 l 29
 534.93 767.434 l 29
 350.512 767.163 l 29
 430.216 572.25 l 29
 432.027 137.973 l 29
 459.04 129.013 l 29
34.0303 366.017 m 29
 219.528 432.152 l 29
 423.528 432.45 l 29
 421.23 455.5 l 29
 217.233 455.2 l 29
 33.7939 527.383 l 29
 34.0303 366.017 l 29
31.2764 198.013 m 29
 216.774 264.148 l 29
 420.774 264.447 l 29
 418.478 287.496 l 29
 214.479 287.196 l 29
 31.04 359.377 l 29
 31.2764 198.013 l 29
EndSplineSet
EndChar
StartChar: egrave
Encoding: 232 232
Width: 799
Flags: W
HStem: 441 23.0518<214 433> 756.961 20G<361.204 545.622> 757 20G<553.914 738.332>
VStem: 270.948 23.0518<13 231> 436.946 29.6387<228 580> 629.656 29.6387<228 580>
DStem: 373.754 123 495 87 537 18 540 60 525.059 270 537 231 375 147 489 195 556.754 117 678 81 720 12 723 54 708.059 264 720 225 558 141 672 189
Fore
739.914 777 m 25
556.754 117 m 21
 720 12 l 29
 723 54 l 29
 678 81 l 29
 672 189 l 29
 720 225 l 29
 708.059 264 l 29
 558 141 l 29
 556.754 117 l 21
373.754 123 m 17
 537 18 l 25
 540 60 l 25
 495 87 l 25
 489 195 l 25
 537 231 l 25
 525.059 270 l 25
 375 147 l 25
 373.754 123 l 17
205.084 417.332 m 25
 270.948 231.737 l 25
 270.948 12.1875 l 25
 294 14.4502 l 25
 294 234 l 25
 366.449 417.332 l 25
 205.084 417.332 l 25
632.008 228 m 29
 629.656 580.088 l 25
 553.914 777 l 25
 738.332 777 l 25
 659.295 580.088 l 25
 660 228 l 29
 632.008 228 l 29
30 529.916 m 25
 215.595 464.052 l 25
 435.145 464.052 l 25
 432.882 441 l 25
 213.332 441 l 25
 30 368.551 l 25
 30 529.916 l 25
439.298 227.961 m 25
 436.946 580.049 l 25
 361.204 776.961 l 25
 545.622 776.961 l 25
 466.585 580.049 l 25
 467.29 227.961 l 25
 439.298 227.961 l 25
EndSplineSet
MinimumDistance: x3,-1 
EndChar
StartChar: igrave
Encoding: 236 236
Width: 1157
Flags: HW
Fore
1076.91 208.931 m 29
 680.659 338.202 l 29
 469.896 328.694 l 29
 528.277 503.627 l 29
 688.135 366.552 l 29
 1125.28 218.627 l 29
 1076.91 208.931 l 29
1133.93 177.016 m 29
 610.381 132.924 l 29
 420 42 l 29
 405.563 225.853 l 29
 606.212 161.945 l 29
 1122.84 203.229 l 29
 1133.93 177.016 l 29
53.335 139.422 m 21
 223.927 41.5088 l 29
 227.062 80.6738 l 29
 180.037 105.852 l 29
 173.767 206.562 l 29
 223.927 240.132 l 29
 211.448 276.499 l 29
 54.6367 161.802 l 29
 53.335 139.422 l 21
40.7334 620.592 m 21
 211.326 522.68 l 29
 214.461 561.845 l 29
 167.436 587.021 l 29
 161.166 687.731 l 29
 211.326 721.302 l 29
 198.847 757.669 l 29
 42.0361 642.972 l 29
 40.7334 620.592 l 21
48.5723 377.209 m 21
 219.164 279.297 l 29
 222.3 318.462 l 29
 175.274 343.64 l 29
 169.004 444.35 l 29
 219.164 477.919 l 29
 206.686 514.287 l 29
 49.874 399.589 l 29
 48.5723 377.209 l 21
203.754 131.029 m 21
 374.346 33.1172 l 29
 377.48 72.2822 l 29
 330.456 97.459 l 29
 324.186 198.169 l 29
 374.346 231.739 l 29
 361.867 268.106 l 29
 205.056 153.409 l 29
 203.754 131.029 l 21
191.152 612.199 m 21
 361.744 514.287 l 29
 364.88 553.452 l 29
 317.854 578.629 l 29
 311.585 679.339 l 29
 361.744 712.909 l 29
 349.266 749.276 l 29
 192.455 634.579 l 29
 191.152 612.199 l 21
198.991 368.816 m 21
 369.583 270.904 l 29
 372.718 310.069 l 29
 325.693 335.247 l 29
 319.423 435.957 l 29
 369.583 469.526 l 29
 357.104 505.895 l 29
 200.293 391.196 l 29
 198.991 368.816 l 21
EndSplineSet
EndChar
StartChar: iacute
Encoding: 237 237
Width: 962
Flags: W
HStem: 180 29.0293<248 619> 387 24<247 430> 760 20G<543.582 728> 763 20G<744.582 929>
VStem: 619.324 29.6387<27 180 181 411 412 583> 820.324 29.6387<41 180 181 411 412 585>
DStem: 430.754 387 552 351 594 282 597 324 582.059 534 594 495 432 411 546 459
Fore
620.697 209.029 m 25
 248 209.639 l 25
 51.0879 285.381 l 25
 51.0879 100.963 l 25
 248 180 l 25
 620.697 181.037 l 25
 620.697 209.029 l 25
55.918 316.94 m 29
 247.754 390 l 29
 430.754 387 l 21
 594 282 l 29
 597 324 l 29
 552 351 l 29
 546 459 l 29
 594 495 l 29
 582.059 534 l 29
 432 411 l 29
 241.513 412.441 l 29
 55.918 478.306 l 29
 55.918 316.94 l 29
620.971 26.3027 m 25
 619.324 583.088 l 25
 543.582 780 l 25
 728 780 l 25
 648.963 583.088 l 25
 648.963 26.3027 l 25
 620.971 26.3027 l 25
821.971 29.3027 m 25
 820.324 586.088 l 25
 744.582 783 l 25
 929 783 l 25
 849.963 586.088 l 25
 849.963 29.3027 l 25
 821.971 29.3027 l 25
EndSplineSet
MinimumDistance: x28,-1 
EndChar
StartChar: icircumflex
Encoding: 238 238
Width: 1208
Flags: W
HStem: 168 27<247 635.519> 546 30.25<238 702> 755.912 20G<986.258 1170.68>
VStem: 1062 29.6387<27 197 198 580>
DStem: 510 360 617.332 327.611 659.332 258.611 662.332 300.611 636 168 819 135 981 12 984 51 647.391 510.611 659.332 471.611 513 390 611.332 435.611 649.393 472.215 770.639 436.215 812.639 367.215 815.639 409.215 800.697 619.215 812.639 580.215 651 501 764.639 544.215 811.393 592.215 932.639 556.215 974.639 487.215 977.639 529.215 962.697 739.215 974.639 700.215 812.639 616.215 926.639 664.215 975.676 450 993 426 636 207 819 294
Fore
513 390 m 25
 417.874 389.053 l 25
 232.279 454.917 l 25
 232.279 390.699 l 25
 44.4199 461.503 l 25
 44.4199 288.611 l 25
 232.279 357.768 l 25
 232.279 293.552 l 25
 425.361 363.611 l 25
 510 360 l 17
 659.332 258.611 l 25
 662.332 300.611 l 25
 617.332 327.611 l 25
 611.332 435.611 l 25
 659.332 471.611 l 25
 647.391 510.611 l 25
 513 390 l 25
702.676 546 m 25
 239.332 546.611 l 25
 42.4199 470.869 l 25
 42.4199 655.287 l 25
 239.332 576.25 l 25
 747 576 l 25
 702.676 546 l 25
636 168 m 25
 247.244 169.354 l 25
 50.332 93.6113 l 25
 50.332 278.029 l 25
 247.244 198.992 l 25
 636.676 195 l 25
 636 168 l 25
1063.65 22.2148 m 25
 1062 579 l 25
 986.258 775.912 l 25
 1170.68 775.912 l 25
 1091.64 579 l 25
 1091.64 22.2148 l 25
 1063.65 22.2148 l 25
636 168 m 17
 981 12 l 25
 984 51 l 25
 819 135 l 25
 819 294 l 25
 993 426 l 29
 975.676 450 l 25
 636 207 l 25
 636 168 l 17
811.393 592.215 m 17
 974.639 487.215 l 25
 977.639 529.215 l 25
 932.639 556.215 l 25
 926.639 664.215 l 25
 974.639 700.215 l 25
 962.697 739.215 l 25
 812.639 616.215 l 25
 811.393 592.215 l 17
649.393 472.215 m 17
 812.639 367.215 l 25
 815.639 409.215 l 25
 770.639 436.215 l 25
 764.639 544.215 l 25
 812.639 580.215 l 25
 800.697 619.215 l 25
 651 501 l 25
 649.393 472.215 l 17
EndSplineSet
MinimumDistance: x32,-1 
EndChar
StartChar: idieresis
Encoding: 239 239
Width: 654
Flags: W
HStem: 237.136 23.3477<224 427> 405.14 23.3477<227 431>
VStem: 439.176 27.0605<25 543>
Fore
466.236 18 m 29
 468.437 543.397 l 29
 543.89 740.421 l 29
 359.472 740.15 l 29
 439.176 545.237 l 29
 439.223 26.96 l 29
 466.236 18 l 29
42.9902 339.004 m 29
 228.488 405.14 l 29
 432.488 405.438 l 29
 430.19 428.487 l 29
 226.193 428.188 l 29
 42.7539 500.37 l 29
 42.9902 339.004 l 29
40.2363 171 m 29
 225.734 237.136 l 29
 429.734 237.435 l 29
 427.438 260.483 l 29
 223.438 260.184 l 29
 40 332.364 l 29
 40.2363 171 l 29
EndSplineSet
MinimumDistance: x0,-1 
EndChar
StartChar: ugrave
Encoding: 249 249
Width: 911
Flags: HW
HStem: -269.225 20G<1753.89 1581> -263.225 20G<1570.89 1398> -111.836 28.9922<2025 1883 1882 1707> 121.783 28.9922<2023 1905 1882 1689>
VStem: 1470.45 23.0518<470 111> 1653.45 23.0518<464 105> 1881.7 22.7979<461 151 123 117>
Fore
372 381 m 29
 445.417 546 l 29
 261 546 l 29
 342.362 381 l 29
 372 381 l 29
345.948 351.032 m 29
 345.948 35.2646 l 29
 369 33 l 29
 369 348.771 l 29
 345.948 351.032 l 29
756.498 35.2637 m 25
 756.498 396.032 l 25
 684.049 579.364 l 25
 748.265 579.364 l 25
 679.108 767.225 l 25
 852 767.225 l 25
 781.196 579.364 l 25
 845.414 579.364 l 25
 779.55 393.771 l 25
 779.55 33 l 25
 756.498 35.2637 l 25
573.498 41.2637 m 25
 573.498 402.032 l 25
 501.049 585.364 l 25
 565.265 585.364 l 25
 496.108 773.225 l 25
 669 773.225 l 25
 598.196 585.364 l 25
 662.414 585.364 l 25
 596.55 399.771 l 25
 596.55 39 l 25
 573.498 41.2637 l 25
562.912 615.836 m 25
 226.912 616.482 l 25
 30 692.225 l 25
 30 507.807 l 25
 226.912 586.844 l 25
 559.912 586.844 l 25
 562.912 615.836 l 25
564 382.217 m 25
 228 382.863 l 25
 31.0879 458.605 l 25
 31.0879 274.188 l 25
 228 353.225 l 25
 561 353.225 l 25
 564 382.217 l 25
EndSplineSet
MinimumDistance: x16,-1 
EndChar
StartChar: uacute
Encoding: 250 250
Width: 984
Flags: W
HStem: 273 23.0518<217 435> 441 23.0518<214 433> 756.961 20G<361.204 545.622> 757 20G<553.914 738.332 739.914 924.332>
VStem: 436.946 29.6387<38 280 296 580> 629.656 29.6387<38 580> 815.656 29.6387<38 580>
Fore
817.303 23.3027 m 25
 815.656 580.088 l 25
 739.914 777 l 25
 924.332 777 l 25
 845.295 580.088 l 25
 845.295 23.3027 l 25
 817.303 23.3027 l 25
631.303 23.3027 m 25
 629.656 580.088 l 25
 553.914 777 l 25
 738.332 777 l 25
 659.295 580.088 l 25
 659.295 23.3027 l 25
 631.303 23.3027 l 25
33 361.916 m 25
 218.595 296.052 l 25
 438.145 296.052 l 25
 435.882 273 l 25
 216.332 273 l 25
 33 200.551 l 25
 33 361.916 l 25
30 529.916 m 25
 215.595 464.052 l 25
 435.145 464.052 l 25
 432.882 441 l 25
 213.332 441 l 25
 30 368.551 l 25
 30 529.916 l 25
438.593 23.2637 m 25
 436.946 580.049 l 25
 361.204 776.961 l 25
 545.622 776.961 l 25
 466.585 580.049 l 25
 466.585 23.2637 l 25
 438.593 23.2637 l 25
EndSplineSet
MinimumDistance: x4,-1 
EndChar
StartChar: udieresis
Encoding: 252 252
Width: 1006
Flags: W
HStem: 388.037 29.9551<576 972>
DStem: 27.5078 366 148.754 330 190.754 261 193.754 303 178.812 513 190.754 474 28.7539 390 142.754 438 195.508 525 316.754 489 358.754 420 361.754 462 208.754 252 330 216 372 147 375 189 346.812 672 358.754 633 196.754 549 310.754 597 360.059 399 372 360 210 276 324 324
Fore
973.754 417.992 m 25
 576.666 417.676 l 25
 379.754 493.418 l 25
 379.754 309 l 25
 576.666 388.037 l 25
 973.754 390 l 25
 973.754 417.992 l 25
27.5078 366 m 17
 190.754 261 l 25
 193.754 303 l 25
 148.754 330 l 25
 142.754 438 l 25
 190.754 474 l 25
 178.812 513 l 25
 28.7539 390 l 25
 27.5078 366 l 17
195.508 525 m 17
 358.754 420 l 25
 361.754 462 l 25
 316.754 489 l 25
 310.754 597 l 25
 358.754 633 l 25
 346.812 672 l 25
 196.754 549 l 25
 195.508 525 l 17
208.754 252 m 17
 372 147 l 25
 375 189 l 25
 330 216 l 25
 324 324 l 25
 372 360 l 25
 360.059 399 l 25
 210 276 l 25
 208.754 252 l 17
EndSplineSet
MinimumDistance: x24,-1 
EndChar
